G04 Layer_Physical_Order=2*
G04 Layer_Color=16711680*
%FSLAX44Y44*%
%MOMM*%
G71*
G01*
G75*
%ADD10R,1.8000X1.3000*%
%ADD12C,0.2540*%
%ADD13C,0.1524*%
%ADD15C,1.1000*%
%ADD16R,1.1000X1.1000*%
%ADD17C,1.7000*%
%ADD18C,0.6350*%
%ADD19R,4.0000X3.0000*%
%ADD20O,0.6000X1.4500*%
%ADD21R,0.9000X0.7000*%
%ADD22R,1.3000X1.8000*%
%ADD23R,0.3500X0.3500*%
%ADD24R,1.6000X0.6700*%
G36*
X1730000Y910000D02*
X1470000D01*
Y1120000D01*
X1730000D01*
Y910000D01*
D02*
G37*
%LPC*%
G36*
X1500000Y1000110D02*
X1497383Y999766D01*
X1494945Y998756D01*
X1492851Y997149D01*
X1491244Y995055D01*
X1490234Y992617D01*
X1489890Y990000D01*
X1490234Y987383D01*
X1491244Y984945D01*
X1491420Y984716D01*
X1480442Y973738D01*
X1479937Y972982D01*
X1479759Y972090D01*
Y937910D01*
X1479937Y937018D01*
X1480442Y936262D01*
X1482976Y933727D01*
Y922976D01*
X1497024D01*
Y935885D01*
X1497024Y936601D01*
X1498147Y937307D01*
X1498250Y937261D01*
X1499158Y936564D01*
X1500866Y935856D01*
X1502700Y935615D01*
X1504534Y935856D01*
X1506242Y936564D01*
X1507710Y937690D01*
X1508253Y938399D01*
X1509847D01*
X1510390Y937690D01*
X1511858Y936564D01*
X1513566Y935856D01*
X1515400Y935615D01*
X1517234Y935856D01*
X1518942Y936564D01*
X1520410Y937690D01*
X1520953Y938399D01*
X1522547D01*
X1523091Y937690D01*
X1523799Y937147D01*
Y935553D01*
X1523091Y935009D01*
X1521965Y933542D01*
X1521257Y931833D01*
X1521015Y930000D01*
X1521257Y928166D01*
X1521965Y926457D01*
X1523091Y924990D01*
X1524558Y923864D01*
X1526266Y923157D01*
X1528100Y922915D01*
X1529934Y923157D01*
X1531642Y923864D01*
X1533110Y924990D01*
X1534236Y926457D01*
X1534943Y928166D01*
X1535185Y930000D01*
X1534943Y931833D01*
X1534236Y933542D01*
X1533110Y935009D01*
X1532401Y935553D01*
Y937147D01*
X1533110Y937690D01*
X1533653Y938399D01*
X1535247D01*
X1535791Y937690D01*
X1537258Y936564D01*
X1538966Y935856D01*
X1540800Y935615D01*
X1542634Y935856D01*
X1544342Y936564D01*
X1545810Y937690D01*
X1546935Y939157D01*
X1547643Y940866D01*
X1547885Y942700D01*
X1547643Y944533D01*
X1546935Y946242D01*
X1545810Y947709D01*
X1544342Y948835D01*
X1542634Y949543D01*
X1540800Y949784D01*
X1538966Y949543D01*
X1537258Y948835D01*
X1535791Y947709D01*
X1535247Y947001D01*
X1533653D01*
X1533110Y947709D01*
X1531642Y948835D01*
X1529934Y949543D01*
X1528100Y949784D01*
X1526266Y949543D01*
X1524558Y948835D01*
X1523091Y947709D01*
X1522547Y947001D01*
X1520953D01*
X1520410Y947709D01*
X1518942Y948835D01*
X1517234Y949543D01*
X1515400Y949784D01*
X1513566Y949543D01*
X1511858Y948835D01*
X1510390Y947709D01*
X1509847Y947001D01*
X1508253D01*
X1507710Y947709D01*
X1506242Y948835D01*
X1504534Y949543D01*
X1502700Y949784D01*
X1500866Y949543D01*
X1499158Y948835D01*
X1497690Y947709D01*
X1497147Y947001D01*
X1495553D01*
X1495010Y947709D01*
X1493542Y948835D01*
X1491834Y949543D01*
X1490000Y949784D01*
X1488166Y949543D01*
X1486458Y948835D01*
X1485691Y948247D01*
X1484421Y948873D01*
Y971125D01*
X1494716Y981420D01*
X1494945Y981244D01*
X1497383Y980234D01*
X1500000Y979890D01*
X1502617Y980234D01*
X1505055Y981244D01*
X1507149Y982851D01*
X1508756Y984945D01*
X1509766Y987383D01*
X1510110Y990000D01*
X1509766Y992617D01*
X1508756Y995055D01*
X1507149Y997149D01*
X1505055Y998756D01*
X1502617Y999766D01*
X1500000Y1000110D01*
D02*
G37*
G36*
X1546024Y1007524D02*
X1546024Y1007524D01*
X1533976D01*
Y997476D01*
X1546024D01*
X1546024Y997476D01*
Y997476D01*
X1547294Y998027D01*
X1548892Y997709D01*
X1550725Y998074D01*
X1552280Y999112D01*
X1553318Y1000667D01*
X1553683Y1002500D01*
X1553318Y1004333D01*
X1552280Y1005888D01*
X1550725Y1006926D01*
X1548892Y1007291D01*
X1547294Y1006973D01*
X1546024Y1007524D01*
Y1007524D01*
D02*
G37*
G36*
X1700000Y944711D02*
X1697383Y944366D01*
X1694944Y943356D01*
X1692850Y941749D01*
X1691244Y939655D01*
X1690234Y937217D01*
X1689889Y934600D01*
X1690234Y931983D01*
X1691244Y929545D01*
X1692850Y927451D01*
X1694944Y925844D01*
X1697383Y924834D01*
X1700000Y924490D01*
X1702616Y924834D01*
X1705055Y925844D01*
X1707149Y927451D01*
X1708756Y929545D01*
X1709766Y931983D01*
X1710110Y934600D01*
X1709766Y937217D01*
X1708756Y939655D01*
X1707149Y941749D01*
X1705055Y943356D01*
X1702616Y944366D01*
X1700000Y944711D01*
D02*
G37*
G36*
X1624600Y948863D02*
X1622835Y948512D01*
X1621339Y947512D01*
X1620339Y946015D01*
X1619988Y944250D01*
Y935750D01*
X1620339Y933985D01*
X1621339Y932488D01*
X1622835Y931489D01*
X1624600Y931137D01*
X1626365Y931489D01*
X1627862Y932488D01*
X1628862Y933985D01*
X1629213Y935750D01*
Y944250D01*
X1628862Y946015D01*
X1627862Y947512D01*
X1626365Y948512D01*
X1624600Y948863D01*
D02*
G37*
G36*
X1500000Y1025510D02*
X1497383Y1025166D01*
X1494945Y1024156D01*
X1492851Y1022549D01*
X1491244Y1020455D01*
X1490234Y1018017D01*
X1489890Y1015400D01*
X1490234Y1012783D01*
X1491244Y1010345D01*
X1492851Y1008251D01*
X1494945Y1006644D01*
X1497383Y1005634D01*
X1500000Y1005290D01*
X1502617Y1005634D01*
X1505055Y1006644D01*
X1507149Y1008251D01*
X1508756Y1010345D01*
X1509766Y1012783D01*
X1510110Y1015400D01*
X1509766Y1018017D01*
X1508756Y1020455D01*
X1507149Y1022549D01*
X1505055Y1024156D01*
X1502617Y1025166D01*
X1500000Y1025510D01*
D02*
G37*
G36*
X1529200Y1110110D02*
X1526583Y1109766D01*
X1524145Y1108756D01*
X1522051Y1107149D01*
X1520444Y1105055D01*
X1519434Y1102617D01*
X1519089Y1100000D01*
X1519434Y1097383D01*
X1520444Y1094945D01*
X1522051Y1092851D01*
X1524145Y1091244D01*
X1526583Y1090234D01*
X1529200Y1089889D01*
X1531817Y1090234D01*
X1534255Y1091244D01*
X1536349Y1092851D01*
X1537956Y1094945D01*
X1538966Y1097383D01*
X1539310Y1100000D01*
X1538966Y1102617D01*
X1537956Y1105055D01*
X1536349Y1107149D01*
X1534255Y1108756D01*
X1531817Y1109766D01*
X1529200Y1110110D01*
D02*
G37*
G36*
X1690000D02*
X1687383Y1109766D01*
X1684945Y1108756D01*
X1682851Y1107149D01*
X1681244Y1105055D01*
X1680234Y1102617D01*
X1679890Y1100000D01*
X1680234Y1097383D01*
X1681148Y1095177D01*
X1677434Y1091462D01*
X1676816Y1090538D01*
X1676599Y1089448D01*
X1676599Y1089447D01*
Y1074104D01*
X1676060Y1073744D01*
X1675022Y1072189D01*
X1674657Y1070356D01*
X1675022Y1068523D01*
X1676060Y1066968D01*
X1677615Y1065930D01*
X1679448Y1065565D01*
X1681281Y1065930D01*
X1682836Y1066968D01*
X1683874Y1068523D01*
X1684239Y1070356D01*
X1683874Y1072189D01*
X1682836Y1073744D01*
X1682297Y1074104D01*
Y1088268D01*
X1685177Y1091148D01*
X1687151Y1090330D01*
Y1036974D01*
X1687151Y1036974D01*
X1687151Y1036974D01*
Y1027111D01*
X1686056Y1026714D01*
X1685881Y1026706D01*
X1675381Y1037206D01*
X1674625Y1037711D01*
X1673733Y1037889D01*
X1663700D01*
X1662808Y1037711D01*
X1662052Y1037206D01*
X1648352Y1023506D01*
X1647847Y1022750D01*
X1647670Y1021858D01*
Y1003856D01*
X1647489Y1003748D01*
X1646219Y1004467D01*
Y1012825D01*
X1646041Y1013717D01*
X1645536Y1014473D01*
X1645012Y1014997D01*
X1644256Y1015503D01*
X1643364Y1015680D01*
X1590199D01*
X1589308Y1015503D01*
X1588551Y1014997D01*
X1584852Y1011298D01*
X1584347Y1010542D01*
X1584169Y1009650D01*
Y1003544D01*
X1583735Y1003273D01*
X1582465Y1003978D01*
Y1022604D01*
X1582287Y1023496D01*
X1581782Y1024252D01*
X1573067Y1032967D01*
Y1049476D01*
X1578139D01*
X1578352Y1049156D01*
X1582677Y1044832D01*
X1583433Y1044327D01*
X1584325Y1044149D01*
X1605831D01*
X1606537Y1043092D01*
X1608092Y1042054D01*
X1609925Y1041689D01*
X1611759Y1042054D01*
X1613313Y1043092D01*
X1614352Y1044647D01*
X1614716Y1046480D01*
X1614352Y1048313D01*
X1613313Y1049868D01*
X1612059Y1050706D01*
X1612396Y1051976D01*
X1620524D01*
Y1054992D01*
X1620793Y1055136D01*
X1621794Y1055537D01*
X1623445Y1055209D01*
X1625278Y1055574D01*
X1626833Y1056612D01*
X1627871Y1058167D01*
X1628206Y1059847D01*
X1629476Y1059722D01*
Y1051976D01*
X1650524D01*
Y1056162D01*
X1651156Y1057151D01*
X1652246Y1057368D01*
X1653170Y1057986D01*
X1660495Y1065310D01*
X1661131Y1065184D01*
X1662964Y1065549D01*
X1664518Y1066587D01*
X1665557Y1068142D01*
X1665922Y1069975D01*
X1665557Y1071808D01*
X1664518Y1073363D01*
X1662964Y1074401D01*
X1661131Y1074766D01*
X1659297Y1074401D01*
X1657743Y1073363D01*
X1656704Y1071808D01*
X1656340Y1069975D01*
X1656466Y1069339D01*
X1651697Y1064570D01*
X1650524Y1065056D01*
Y1068024D01*
X1629476D01*
Y1060277D01*
X1628206Y1060152D01*
X1627871Y1061833D01*
X1626833Y1063388D01*
X1625278Y1064426D01*
X1623445Y1064791D01*
X1621794Y1064463D01*
X1620793Y1064864D01*
X1620524Y1065008D01*
Y1068024D01*
X1599476D01*
Y1051976D01*
X1607455D01*
X1607792Y1050706D01*
X1606537Y1049868D01*
X1605831Y1048811D01*
X1589019D01*
X1588024Y1049476D01*
Y1070524D01*
X1573067D01*
Y1089771D01*
X1574716Y1091420D01*
X1574945Y1091244D01*
X1577383Y1090234D01*
X1580000Y1089889D01*
X1582617Y1090234D01*
X1585055Y1091244D01*
X1587149Y1092851D01*
X1588756Y1094945D01*
X1589766Y1097383D01*
X1590110Y1100000D01*
X1589766Y1102617D01*
X1588756Y1105055D01*
X1587149Y1107149D01*
X1585055Y1108756D01*
X1582617Y1109766D01*
X1580000Y1110110D01*
X1577383Y1109766D01*
X1574945Y1108756D01*
X1572851Y1107149D01*
X1571244Y1105055D01*
X1570234Y1102617D01*
X1569889Y1100000D01*
X1570234Y1097383D01*
X1571244Y1094945D01*
X1571420Y1094716D01*
X1569088Y1092384D01*
X1568583Y1091628D01*
X1568497Y1091195D01*
X1567405Y1090750D01*
X1567142Y1090753D01*
X1563180Y1094716D01*
X1563356Y1094945D01*
X1564366Y1097383D01*
X1564710Y1100000D01*
X1564366Y1102617D01*
X1563356Y1105055D01*
X1561749Y1107149D01*
X1559655Y1108756D01*
X1557217Y1109766D01*
X1554600Y1110110D01*
X1551983Y1109766D01*
X1549545Y1108756D01*
X1547451Y1107149D01*
X1545844Y1105055D01*
X1544834Y1102617D01*
X1544489Y1100000D01*
X1544834Y1097383D01*
X1545844Y1094945D01*
X1547451Y1092851D01*
X1549545Y1091244D01*
X1551983Y1090234D01*
X1554600Y1089889D01*
X1557217Y1090234D01*
X1559655Y1091244D01*
X1559884Y1091420D01*
X1564341Y1086962D01*
Y923925D01*
X1564519Y923033D01*
X1565024Y922277D01*
X1568199Y919102D01*
X1568955Y918597D01*
X1569847Y918419D01*
X1608725D01*
X1609617Y918597D01*
X1610373Y919102D01*
X1613548Y922277D01*
X1614054Y923033D01*
X1614231Y923925D01*
Y931867D01*
X1615162Y932488D01*
X1616162Y933985D01*
X1616513Y935750D01*
Y944250D01*
X1616162Y946015D01*
X1615162Y947512D01*
X1613665Y948512D01*
X1611900Y948863D01*
X1610135Y948512D01*
X1608639Y947512D01*
X1607639Y946015D01*
X1607288Y944250D01*
Y935750D01*
X1607639Y933985D01*
X1608639Y932488D01*
X1609570Y931867D01*
Y924890D01*
X1607760Y923081D01*
X1589328D01*
X1588943Y924351D01*
X1589888Y924982D01*
X1590927Y926537D01*
X1591291Y928370D01*
X1590927Y930203D01*
X1590217Y931265D01*
X1589762Y932489D01*
X1590762Y933985D01*
X1591113Y935750D01*
Y944250D01*
X1590762Y946015D01*
X1590602Y946255D01*
X1591200Y947375D01*
X1594500D01*
X1595099Y946255D01*
X1594939Y946015D01*
X1594588Y944250D01*
Y935750D01*
X1594939Y933985D01*
X1595939Y932488D01*
X1597435Y931489D01*
X1599200Y931137D01*
X1600965Y931489D01*
X1602462Y932488D01*
X1603462Y933985D01*
X1603813Y935750D01*
Y944250D01*
X1603462Y946015D01*
X1602462Y947512D01*
X1601531Y948134D01*
Y949452D01*
X1601354Y950344D01*
X1600848Y951100D01*
X1600594Y951354D01*
X1599838Y951859D01*
X1598946Y952037D01*
X1588465D01*
X1582465Y958037D01*
Y986034D01*
X1583735Y986657D01*
X1584735Y985988D01*
X1586500Y985637D01*
X1588265Y985988D01*
X1589762Y986988D01*
X1590762Y988485D01*
X1591113Y990250D01*
Y998750D01*
X1590762Y1000515D01*
X1589762Y1002011D01*
X1588831Y1002634D01*
Y1008685D01*
X1591165Y1011019D01*
X1595810D01*
X1596195Y1009749D01*
X1595796Y1009482D01*
X1594758Y1007927D01*
X1594393Y1006094D01*
X1594758Y1004261D01*
X1595455Y1003216D01*
X1595939Y1002011D01*
X1594939Y1000515D01*
X1594588Y998750D01*
Y990250D01*
X1594939Y988485D01*
X1595939Y986988D01*
X1597435Y985988D01*
X1599200Y985637D01*
X1600965Y985988D01*
X1602462Y986988D01*
X1603462Y988485D01*
X1603813Y990250D01*
Y998750D01*
X1603462Y1000515D01*
X1602462Y1002011D01*
X1602923Y1003231D01*
X1603610Y1004261D01*
X1603975Y1006094D01*
X1603610Y1007927D01*
X1602572Y1009482D01*
X1602173Y1009749D01*
X1602558Y1011019D01*
X1641557D01*
Y1002634D01*
X1640287Y1002195D01*
X1639065Y1003011D01*
X1637300Y1003363D01*
X1635535Y1003011D01*
X1634039Y1002011D01*
X1633039Y1000515D01*
X1632688Y998750D01*
Y990250D01*
X1633013Y988613D01*
X1632944Y988259D01*
X1632455Y987343D01*
X1629446D01*
X1628956Y988259D01*
X1628887Y988613D01*
X1629213Y990250D01*
Y998750D01*
X1628862Y1000515D01*
X1627862Y1002011D01*
X1626365Y1003011D01*
X1624600Y1003363D01*
X1622835Y1003011D01*
X1621339Y1002011D01*
X1620339Y1000515D01*
X1619988Y998750D01*
Y990250D01*
X1620339Y988485D01*
X1621339Y986988D01*
X1622269Y986366D01*
Y985266D01*
X1622447Y984374D01*
X1622952Y983618D01*
X1623206Y983364D01*
X1623962Y982859D01*
X1624854Y982681D01*
X1634541D01*
X1635975Y981247D01*
X1635727Y980000D01*
X1636092Y978167D01*
X1637130Y976612D01*
X1638685Y975574D01*
X1640518Y975209D01*
X1642351Y975574D01*
X1642827Y975892D01*
X1643995Y975267D01*
X1644092Y974034D01*
X1641224Y971166D01*
X1640719Y970410D01*
X1640541Y969518D01*
Y948873D01*
X1639421Y948274D01*
X1639065Y948512D01*
X1637300Y948863D01*
X1635535Y948512D01*
X1634039Y947512D01*
X1633039Y946015D01*
X1632688Y944250D01*
Y935750D01*
X1633039Y933985D01*
X1634039Y932489D01*
X1633369Y931408D01*
X1632858Y930642D01*
X1632493Y928809D01*
X1632858Y926975D01*
X1633896Y925421D01*
X1635451Y924383D01*
X1637284Y924018D01*
X1639117Y924383D01*
X1640672Y925421D01*
X1641710Y926975D01*
X1642075Y928809D01*
X1641710Y930642D01*
X1641209Y931393D01*
X1641120Y931543D01*
X1641279Y931856D01*
X1642828Y932102D01*
X1646431Y928500D01*
X1647187Y927995D01*
X1648079Y927817D01*
X1672971D01*
X1673863Y927995D01*
X1674619Y928500D01*
X1678048Y931929D01*
X1678553Y932685D01*
X1678731Y933577D01*
Y966648D01*
X1680794Y968711D01*
X1692910D01*
X1693319Y967509D01*
X1692850Y967149D01*
X1691244Y965055D01*
X1690234Y962617D01*
X1689889Y960000D01*
X1690234Y957383D01*
X1691244Y954945D01*
X1692850Y952851D01*
X1694944Y951244D01*
X1697383Y950234D01*
X1700000Y949890D01*
X1702616Y950234D01*
X1705055Y951244D01*
X1707149Y952851D01*
X1708756Y954945D01*
X1709766Y957383D01*
X1710110Y960000D01*
X1709766Y962617D01*
X1708852Y964823D01*
X1721340Y977312D01*
X1721340Y977312D01*
X1721958Y978236D01*
X1722175Y979326D01*
X1722175Y979327D01*
Y1012825D01*
X1722175Y1012825D01*
X1721958Y1013915D01*
X1721340Y1014839D01*
X1720549Y1015631D01*
X1721358Y1016618D01*
X1722065Y1016146D01*
X1723898Y1015781D01*
X1725731Y1016146D01*
X1727286Y1017184D01*
X1728324Y1018739D01*
X1728689Y1020572D01*
X1728324Y1022405D01*
X1727286Y1023960D01*
X1725731Y1024998D01*
X1723898Y1025363D01*
X1722065Y1024998D01*
X1721644Y1024717D01*
X1720524Y1025316D01*
Y1038024D01*
X1699476D01*
Y1032849D01*
X1698154D01*
X1692849Y1038154D01*
Y1090330D01*
X1695055Y1091244D01*
X1697149Y1092851D01*
X1698756Y1094945D01*
X1699766Y1097383D01*
X1700111Y1100000D01*
X1699766Y1102617D01*
X1698756Y1105055D01*
X1697149Y1107149D01*
X1695055Y1108756D01*
X1692617Y1109766D01*
X1690000Y1110110D01*
D02*
G37*
G36*
X1664600D02*
X1661983Y1109766D01*
X1659545Y1108756D01*
X1657451Y1107149D01*
X1655844Y1105055D01*
X1654834Y1102617D01*
X1654490Y1100000D01*
X1654834Y1097383D01*
X1655844Y1094945D01*
X1657451Y1092851D01*
X1659545Y1091244D01*
X1661983Y1090234D01*
X1664600Y1089889D01*
X1667217Y1090234D01*
X1669655Y1091244D01*
X1671749Y1092851D01*
X1673356Y1094945D01*
X1674366Y1097383D01*
X1674711Y1100000D01*
X1674366Y1102617D01*
X1673356Y1105055D01*
X1671749Y1107149D01*
X1669655Y1108756D01*
X1667217Y1109766D01*
X1664600Y1110110D01*
D02*
G37*
G36*
X1546024Y1022524D02*
X1533976D01*
Y1012476D01*
X1545194D01*
X1545504Y1012012D01*
X1547059Y1010974D01*
X1548892Y1010609D01*
X1550725Y1010974D01*
X1552280Y1012012D01*
X1553318Y1013567D01*
X1553683Y1015400D01*
X1553318Y1017234D01*
X1552280Y1018788D01*
X1550725Y1019826D01*
X1548892Y1020191D01*
X1547294Y1019873D01*
X1546024Y1020546D01*
Y1022524D01*
D02*
G37*
%LPD*%
G36*
X1716477Y1011645D02*
Y980506D01*
X1704866Y968896D01*
X1703746Y969318D01*
X1703452Y970795D01*
X1705734Y973077D01*
X1706239Y973833D01*
X1706417Y974725D01*
Y984751D01*
X1707687Y985430D01*
X1708095Y985158D01*
X1709928Y984793D01*
X1711761Y985158D01*
X1713316Y986196D01*
X1714354Y987751D01*
X1714719Y989584D01*
X1714354Y991417D01*
X1713316Y992972D01*
X1713274Y993000D01*
Y999074D01*
X1691726D01*
Y995822D01*
X1689230Y993326D01*
X1688725Y992570D01*
X1688547Y991678D01*
Y988883D01*
X1687875Y988434D01*
X1686605Y989057D01*
Y1012766D01*
X1687875Y1013151D01*
X1687986Y1012985D01*
X1691726Y1009245D01*
Y1006725D01*
X1708274D01*
Y1012070D01*
X1709863Y1013659D01*
X1714463D01*
X1716477Y1011645D01*
D02*
G37*
G36*
X1681943Y1024052D02*
Y981075D01*
X1682121Y980183D01*
X1682626Y979427D01*
X1686055Y975998D01*
X1686811Y975493D01*
X1687703Y975315D01*
X1692656D01*
X1693548Y975493D01*
X1694304Y975998D01*
X1700485Y982179D01*
X1701755Y981653D01*
Y975690D01*
X1699438Y973373D01*
X1679829D01*
X1678937Y973195D01*
X1678181Y972690D01*
X1674752Y969261D01*
X1674247Y968505D01*
X1674069Y967613D01*
Y934542D01*
X1672006Y932479D01*
X1654783D01*
X1654104Y933749D01*
X1654262Y933985D01*
X1654613Y935750D01*
Y944250D01*
X1654262Y946015D01*
X1653262Y947512D01*
X1652331Y948134D01*
Y960328D01*
X1653388Y961034D01*
X1654427Y962588D01*
X1654791Y964422D01*
X1654427Y966255D01*
X1653388Y967810D01*
X1651834Y968848D01*
X1650000Y969213D01*
X1648167Y968848D01*
X1647311Y968276D01*
X1645868Y968808D01*
X1645786Y969136D01*
X1648076Y971426D01*
X1648581Y972182D01*
X1648759Y973074D01*
Y984589D01*
X1649513Y985425D01*
X1649926Y985652D01*
X1650000Y985637D01*
X1651765Y985988D01*
X1653262Y986988D01*
X1654262Y988485D01*
X1654613Y990250D01*
Y998750D01*
X1654262Y1000515D01*
X1653262Y1002011D01*
X1652331Y1002634D01*
Y1020893D01*
X1664665Y1033227D01*
X1672768D01*
X1681943Y1024052D01*
D02*
G37*
D10*
X1640000Y1060000D02*
D03*
Y1031500D02*
D03*
X1610000Y1060000D02*
D03*
Y1031500D02*
D03*
X1710000Y1030000D02*
D03*
Y1058500D02*
D03*
D12*
X1690000Y1014999D02*
Y1036974D01*
X1651155Y1060000D02*
X1661131Y1069975D01*
X1640000Y1060000D02*
X1651155D01*
X1696974Y1030000D02*
X1710000D01*
X1690000Y1036974D02*
X1696974Y1030000D01*
X1690000Y1036974D02*
Y1100000D01*
X1679448Y1070356D02*
Y1089448D01*
X1690000Y1100000D01*
Y1014999D02*
X1695000Y1009999D01*
X1700000D02*
Y1016000D01*
X1704572Y1020572D01*
X1723898D01*
X1705000Y1009999D02*
Y1012825D01*
X1708683Y1016508D01*
X1715643D01*
X1719326Y1012825D01*
Y979326D02*
Y1012825D01*
X1700000Y960000D02*
X1719326Y979326D01*
D13*
X1573784Y994500D02*
Y1006094D01*
X1612138Y967250D02*
Y976884D01*
X1482090Y972090D02*
X1500000Y990000D01*
X1482090Y937910D02*
Y972090D01*
Y937910D02*
X1490000Y930000D01*
X1599200Y940000D02*
Y949452D01*
X1598946Y949706D02*
X1599200Y949452D01*
X1587500Y949706D02*
X1598946D01*
X1580134Y957072D02*
X1587500Y949706D01*
X1580134Y957072D02*
Y1022604D01*
X1570736Y1032002D02*
X1580134Y1022604D01*
X1570736Y1032002D02*
Y1090736D01*
X1580000Y1100000D01*
X1637300Y928825D02*
Y940000D01*
X1637284Y928809D02*
X1637300Y928825D01*
X1586500Y994500D02*
Y1009650D01*
X1590199Y1013349D01*
X1643364D01*
X1643888Y1012825D01*
Y987552D02*
Y1012825D01*
Y987552D02*
X1646428Y985012D01*
Y973074D02*
Y985012D01*
X1642872Y969518D02*
X1646428Y973074D01*
X1642872Y935355D02*
Y969518D01*
Y935355D02*
X1648079Y930148D01*
X1672971D01*
X1676400Y933577D01*
Y967613D01*
X1679829Y971042D01*
X1700403D01*
X1704086Y974725D01*
Y994886D01*
X1705000Y995800D01*
X1580000Y1050805D02*
Y1060000D01*
Y1050805D02*
X1584325Y1046480D01*
X1609925D01*
X1610000Y1060000D02*
X1623445D01*
X1554600Y1100000D02*
X1566672Y1087928D01*
Y923925D02*
Y1087928D01*
Y923925D02*
X1569847Y920750D01*
X1608725D01*
X1611900Y923925D01*
Y940000D01*
X1586500Y928370D02*
Y940000D01*
X1656604Y951500D02*
X1670000Y964896D01*
Y1028555D01*
X1596555Y1031500D02*
X1610000D01*
X1611900Y967250D02*
X1612138D01*
X1611900Y977122D02*
X1612138Y976884D01*
X1611900Y977122D02*
Y994500D01*
X1710000Y1009999D02*
X1714754Y1005246D01*
Y1004738D02*
Y1005246D01*
X1712916Y1002900D02*
X1714754Y1004738D01*
X1702500Y1002900D02*
X1712916D01*
X1700000Y984990D02*
Y995800D01*
X1692656Y977646D02*
X1700000Y984990D01*
X1687703Y977646D02*
X1692656D01*
X1684274Y981075D02*
X1687703Y977646D01*
X1684274Y981075D02*
Y1025017D01*
X1673733Y1035558D02*
X1684274Y1025017D01*
X1663700Y1035558D02*
X1673733D01*
X1650000Y1021858D02*
X1663700Y1035558D01*
X1650000Y994500D02*
Y1021858D01*
X1540000Y1002500D02*
X1548892D01*
X1650000Y940000D02*
Y964422D01*
X1573784Y994500D02*
X1573800D01*
X1690878Y984250D02*
Y991678D01*
X1695000Y995800D01*
X1710000Y989656D02*
Y995800D01*
X1709928Y989584D02*
X1710000Y989656D01*
X1599184Y1006094D02*
X1599200Y1006078D01*
Y994500D02*
Y1006078D01*
X1573800Y940000D02*
Y951722D01*
X1573784Y951738D02*
X1573800Y951722D01*
X1624600Y985266D02*
Y994500D01*
Y985266D02*
X1624854Y985012D01*
X1635506D01*
X1640518Y980000D01*
X1540000Y1017500D02*
X1546792D01*
X1548892Y1015400D01*
D15*
X1540800Y942700D02*
D03*
X1528100D02*
D03*
X1515400D02*
D03*
X1502700D02*
D03*
X1490000D02*
D03*
X1540800Y930000D02*
D03*
X1528100D02*
D03*
X1515400D02*
D03*
X1502700D02*
D03*
D16*
X1490000D02*
D03*
D17*
X1700000Y960000D02*
D03*
Y934600D02*
D03*
X1639200Y1100000D02*
D03*
X1664600D02*
D03*
X1690000D02*
D03*
X1500000Y990000D02*
D03*
Y1015400D02*
D03*
Y1040800D02*
D03*
X1529200Y1100000D02*
D03*
X1554600D02*
D03*
X1580000D02*
D03*
X1503800D02*
D03*
D18*
X1637284Y928809D02*
D03*
X1661131Y1069975D02*
D03*
X1679448Y1070356D02*
D03*
X1609925Y1046480D02*
D03*
X1623445Y1060000D02*
D03*
X1586500Y928370D02*
D03*
X1656604Y951500D02*
D03*
X1670000Y1028555D02*
D03*
X1596555Y1031500D02*
D03*
X1548892Y1002500D02*
D03*
X1650000Y964422D02*
D03*
X1723898Y1020572D02*
D03*
X1573784Y1006094D02*
D03*
X1690878Y984250D02*
D03*
X1709928Y989584D02*
D03*
X1599184Y1006094D02*
D03*
X1573784Y951738D02*
D03*
X1640518Y980000D02*
D03*
X1548892Y1015400D02*
D03*
D19*
X1611900Y967250D02*
D03*
D20*
X1573800Y994500D02*
D03*
X1586500D02*
D03*
X1599200D02*
D03*
X1611900D02*
D03*
X1624600D02*
D03*
X1637300D02*
D03*
X1650000D02*
D03*
X1573800Y940000D02*
D03*
X1586500D02*
D03*
X1599200D02*
D03*
X1611900D02*
D03*
X1624600D02*
D03*
X1637300D02*
D03*
X1650000D02*
D03*
D21*
X1540000Y1002500D02*
D03*
Y1017500D02*
D03*
D22*
X1580000Y1060000D02*
D03*
X1551500D02*
D03*
D23*
X1695000Y1009999D02*
D03*
X1700000D02*
D03*
X1705000D02*
D03*
X1710000D02*
D03*
X1695000Y995800D02*
D03*
X1700000D02*
D03*
X1705000D02*
D03*
X1710000D02*
D03*
D24*
X1702500Y1002900D02*
D03*
M02*
