M48
;Layer_Color=9474304
;FILE_FORMAT=4:4
METRIC,LZ
;TYPE=PLATED
T1F00S00C0.3302
T2F00S00C0.7500
T3F00S00C1.1200
T4F00S00C1.2000
%
T01
X015865Y0092837
X01573784Y00951738
Y01006094
X01548892Y010025
Y010154
X01599184Y01006094
X01596555Y010315
X01609925Y0104648
X01623445Y0106
X01661131Y01069975
X01679448Y01070356
X0167Y01028555
X01723898Y01020572
X01709928Y00989584
X01690878Y0098425
X01640518Y0098
X0165Y00964422
X01656604Y009515
X01637284Y00928809
T02
X0149Y0093
Y009427
X015027
X015154
X015281
X015408
Y0093
X015281
X015154
X015027
T03
X017Y009346
Y0096
T04
X015Y0099
Y010154
Y010408
X015038Y011
X015292
X015546
X0158
X016392
X016646
X0169
M30
