G04 Layer_Color=32768*
%FSLAX44Y44*%
%MOMM*%
G71*
G01*
G75*
%ADD25C,0.1000*%
%ADD42C,0.0500*%
D25*
X1606900Y967250D02*
X1616900D01*
X1611900Y962250D02*
Y972250D01*
X1610000Y1040750D02*
Y1050750D01*
X1605000Y1045750D02*
X1615000D01*
X1535250Y1010000D02*
X1544750D01*
X1540000Y1005250D02*
Y1014750D01*
X1545500Y998000D02*
Y1022000D01*
X1534500Y998000D02*
Y1022000D01*
Y998000D02*
X1545500D01*
X1534500Y1022000D02*
X1545500D01*
X1640000Y1040750D02*
Y1050750D01*
X1635000Y1045750D02*
X1645000D01*
X1610000Y1040750D02*
Y1050750D01*
X1605000Y1045750D02*
X1615000D01*
X1560750Y1060000D02*
X1570750D01*
X1565750Y1055000D02*
Y1065000D01*
X1710000Y1039250D02*
Y1049250D01*
X1705000Y1044250D02*
X1715000D01*
X1662000Y1030750D02*
X1697000D01*
Y1068250D01*
X1662000Y1030750D02*
Y1068250D01*
X1697000D01*
X1679500Y1044500D02*
Y1054500D01*
X1674500Y1049500D02*
X1684500D01*
X1670000Y960750D02*
Y970750D01*
X1665000Y965750D02*
X1675000D01*
X1640000Y1040750D02*
Y1050750D01*
X1635000Y1045750D02*
X1645000D01*
X1580000Y1040750D02*
Y1050750D01*
X1575000Y1045750D02*
X1585000D01*
X1702500Y997899D02*
Y1007899D01*
X1697500Y1002900D02*
X1707500D01*
X1550000Y1040750D02*
Y1050750D01*
X1545000Y1045750D02*
X1555000D01*
D42*
X1565400Y930250D02*
Y1004250D01*
X1658400Y930250D02*
Y1004250D01*
X1565400D02*
X1658400D01*
X1565400Y930250D02*
X1658400D01*
X1598500Y1068750D02*
X1621500D01*
X1598500Y1022750D02*
X1621500D01*
Y1068750D01*
X1598500Y1022750D02*
Y1068750D01*
X1628500D02*
X1651500D01*
X1628500Y1022750D02*
X1651500D01*
X1628500D02*
Y1068750D01*
X1651500Y1022750D02*
Y1068750D01*
X1598500D02*
X1621500D01*
X1598500Y1022750D02*
X1621500D01*
X1598500D02*
Y1068750D01*
X1621500Y1022750D02*
Y1068750D01*
X1588750Y1048500D02*
Y1071500D01*
X1542750Y1048500D02*
Y1071500D01*
X1588750D01*
X1542750Y1048500D02*
X1588750D01*
X1698500Y1021250D02*
X1721500D01*
X1698500Y1067250D02*
X1721500D01*
Y1021250D02*
Y1067250D01*
X1698500Y1021250D02*
Y1067250D01*
X1658500Y988750D02*
X1681500D01*
X1658500Y942750D02*
X1681500D01*
Y988750D01*
X1658500Y942750D02*
Y988750D01*
X1628500Y1068750D02*
X1651500D01*
X1628500Y1022750D02*
X1651500D01*
Y1068750D01*
X1628500Y1022750D02*
Y1068750D01*
X1568500D02*
X1591500D01*
X1568500Y1022750D02*
X1591500D01*
Y1068750D01*
X1568500Y1022750D02*
Y1068750D01*
X1690000Y1014450D02*
X1715000D01*
X1690000Y991350D02*
X1715000D01*
X1690000D02*
Y1014450D01*
X1715000Y991350D02*
Y1014450D01*
X1538500Y1068750D02*
X1561500D01*
X1538500Y1022750D02*
X1561500D01*
Y1068750D01*
X1538500Y1022750D02*
Y1068750D01*
M02*
