G04 Layer_Color=16711935*
%FSLAX44Y44*%
%MOMM*%
G71*
G01*
G75*
%ADD28R,2.0032X1.5032*%
%ADD30C,1.3032*%
%ADD31R,1.3032X1.3032*%
%ADD32C,1.9032*%
%ADD33C,0.8382*%
%ADD34R,4.2032X3.2032*%
%ADD35O,0.8032X1.6532*%
%ADD36R,1.1032X0.9032*%
%ADD37R,1.5032X2.0032*%
%ADD38R,0.5532X0.5532*%
%ADD39R,1.8032X0.8732*%
D28*
X1640000Y1060000D02*
D03*
Y1031500D02*
D03*
X1610000Y1060000D02*
D03*
Y1031500D02*
D03*
X1710000Y1030000D02*
D03*
Y1058500D02*
D03*
D30*
X1540800Y942700D02*
D03*
X1528100D02*
D03*
X1515400D02*
D03*
X1502700D02*
D03*
X1490000D02*
D03*
X1540800Y930000D02*
D03*
X1528100D02*
D03*
X1515400D02*
D03*
X1502700D02*
D03*
D31*
X1490000D02*
D03*
D32*
X1700000Y960000D02*
D03*
Y934600D02*
D03*
X1639200Y1100000D02*
D03*
X1664600D02*
D03*
X1690000D02*
D03*
X1500000Y990000D02*
D03*
Y1015400D02*
D03*
Y1040800D02*
D03*
X1529200Y1100000D02*
D03*
X1554600D02*
D03*
X1580000D02*
D03*
X1503800D02*
D03*
D33*
X1637284Y928809D02*
D03*
X1661131Y1069975D02*
D03*
X1679448Y1070356D02*
D03*
X1609925Y1046480D02*
D03*
X1623445Y1060000D02*
D03*
X1586500Y928370D02*
D03*
X1656604Y951500D02*
D03*
X1670000Y1028555D02*
D03*
X1596555Y1031500D02*
D03*
X1548892Y1002500D02*
D03*
X1650000Y964422D02*
D03*
X1723898Y1020572D02*
D03*
X1573784Y1006094D02*
D03*
X1690878Y984250D02*
D03*
X1709928Y989584D02*
D03*
X1599184Y1006094D02*
D03*
X1573784Y951738D02*
D03*
X1640518Y980000D02*
D03*
X1548892Y1015400D02*
D03*
D34*
X1611900Y967250D02*
D03*
D35*
X1573800Y994500D02*
D03*
X1586500D02*
D03*
X1599200D02*
D03*
X1611900D02*
D03*
X1624600D02*
D03*
X1637300D02*
D03*
X1650000D02*
D03*
X1573800Y940000D02*
D03*
X1586500D02*
D03*
X1599200D02*
D03*
X1611900D02*
D03*
X1624600D02*
D03*
X1637300D02*
D03*
X1650000D02*
D03*
D36*
X1540000Y1002500D02*
D03*
Y1017500D02*
D03*
D37*
X1580000Y1060000D02*
D03*
X1551500D02*
D03*
D38*
X1695000Y1009999D02*
D03*
X1700000D02*
D03*
X1705000D02*
D03*
X1710000D02*
D03*
X1695000Y995800D02*
D03*
X1700000D02*
D03*
X1705000D02*
D03*
X1710000D02*
D03*
D39*
X1702500Y1002900D02*
D03*
M02*
