G04 Layer_Color=255*
%FSLAX44Y44*%
%MOMM*%
G71*
G01*
G75*
%ADD10R,1.8000X1.3000*%
%ADD15C,1.1000*%
%ADD16R,1.1000X1.1000*%
%ADD17C,1.7000*%
%ADD19R,4.0000X3.0000*%
%ADD20O,0.6000X1.4500*%
%ADD21R,0.9000X0.7000*%
%ADD22R,1.3000X1.8000*%
%ADD23R,0.3500X0.3500*%
%ADD24R,1.6000X0.6700*%
D10*
X1640000Y1060000D02*
D03*
Y1031500D02*
D03*
X1610000Y1060000D02*
D03*
Y1031500D02*
D03*
X1710000Y1030000D02*
D03*
Y1058500D02*
D03*
D15*
X1540800Y942700D02*
D03*
X1528100D02*
D03*
X1515400D02*
D03*
X1502700D02*
D03*
X1490000D02*
D03*
X1540800Y930000D02*
D03*
X1528100D02*
D03*
X1515400D02*
D03*
X1502700D02*
D03*
D16*
X1490000D02*
D03*
D17*
X1700000Y960000D02*
D03*
Y934600D02*
D03*
X1639200Y1100000D02*
D03*
X1664600D02*
D03*
X1690000D02*
D03*
X1500000Y990000D02*
D03*
Y1015400D02*
D03*
Y1040800D02*
D03*
X1529200Y1100000D02*
D03*
X1554600D02*
D03*
X1580000D02*
D03*
X1503800D02*
D03*
D19*
X1611900Y967250D02*
D03*
D20*
X1573800Y994500D02*
D03*
X1586500D02*
D03*
X1599200D02*
D03*
X1611900D02*
D03*
X1624600D02*
D03*
X1637300D02*
D03*
X1650000D02*
D03*
X1573800Y940000D02*
D03*
X1586500D02*
D03*
X1599200D02*
D03*
X1611900D02*
D03*
X1624600D02*
D03*
X1637300D02*
D03*
X1650000D02*
D03*
D21*
X1540000Y1002500D02*
D03*
Y1017500D02*
D03*
D22*
X1580000Y1060000D02*
D03*
X1551500D02*
D03*
D23*
X1695000Y1009999D02*
D03*
X1700000D02*
D03*
X1705000D02*
D03*
X1710000D02*
D03*
X1695000Y995800D02*
D03*
X1700000D02*
D03*
X1705000D02*
D03*
X1710000D02*
D03*
D24*
X1702500Y1002900D02*
D03*
M02*
