G04 Layer_Color=255*
%FSLAX44Y44*%
%MOMM*%
G71*
G01*
G75*
%ADD10R,1.8000X1.3000*%
%ADD11R,0.6000X1.4000*%
%ADD15C,1.1000*%
%ADD16R,1.1000X1.1000*%
%ADD17C,1.7000*%
D10*
X1610000Y1060000D02*
D03*
Y1031500D02*
D03*
X1670000Y980000D02*
D03*
Y951500D02*
D03*
X1640000Y1060000D02*
D03*
Y1031500D02*
D03*
X1580000Y1060000D02*
D03*
Y1031500D02*
D03*
X1550000Y1060000D02*
D03*
Y1031500D02*
D03*
D11*
X1689000Y1040000D02*
D03*
X1670000D02*
D03*
X1679500Y1059000D02*
D03*
D15*
X1540800Y942700D02*
D03*
X1528100D02*
D03*
X1515400D02*
D03*
X1502700D02*
D03*
X1490000D02*
D03*
X1540800Y930000D02*
D03*
X1528100D02*
D03*
X1515400D02*
D03*
X1502700D02*
D03*
D16*
X1490000D02*
D03*
D17*
X1700000Y960000D02*
D03*
Y934600D02*
D03*
X1639200Y1100000D02*
D03*
X1664600D02*
D03*
X1690000D02*
D03*
X1500000Y990000D02*
D03*
Y1015400D02*
D03*
Y1040800D02*
D03*
X1529200Y1100000D02*
D03*
X1554600D02*
D03*
X1580000D02*
D03*
X1503800D02*
D03*
M02*
