G04 Layer_Color=16777215*
%FSLAX44Y44*%
%MOMM*%
G71*
G01*
G75*
%ADD25C,0.1000*%
%ADD26C,0.2000*%
%ADD40C,0.6000*%
%ADD41C,0.2500*%
D25*
X1691628Y1013871D02*
G03*
X1691628Y1013871I-500J0D01*
G01*
X1711311Y1069911D02*
X1710811Y1070411D01*
Y1071410D01*
X1711311Y1071910D01*
X1713310D01*
X1713810Y1071410D01*
Y1070411D01*
X1713310Y1069911D01*
X1713810Y1067411D02*
X1710811D01*
X1712310Y1068911D01*
Y1066912D01*
X1586037Y1080315D02*
X1586537Y1080815D01*
X1587536D01*
X1588036Y1080315D01*
Y1078316D01*
X1587536Y1077816D01*
X1586537D01*
X1586037Y1078316D01*
X1583038Y1080815D02*
X1585037D01*
Y1079315D01*
X1584037Y1079815D01*
X1583537D01*
X1583038Y1079315D01*
Y1078316D01*
X1583537Y1077816D01*
X1584537D01*
X1585037Y1078316D01*
X1618869Y1077681D02*
X1619368Y1078181D01*
X1620368D01*
X1620868Y1077681D01*
Y1075682D01*
X1620368Y1075182D01*
X1619368D01*
X1618869Y1075682D01*
X1617869Y1078181D02*
X1615870D01*
Y1077681D01*
X1617869Y1075682D01*
Y1075182D01*
X1641229Y1021359D02*
X1641729Y1020860D01*
Y1019860D01*
X1641229Y1019360D01*
X1639230D01*
X1638730Y1019860D01*
Y1020860D01*
X1639230Y1021359D01*
X1641229Y1022359D02*
X1641729Y1022859D01*
Y1023858D01*
X1641229Y1024358D01*
X1640729D01*
X1640229Y1023858D01*
X1639730Y1024358D01*
X1639230D01*
X1638730Y1023858D01*
Y1022859D01*
X1639230Y1022359D01*
X1639730D01*
X1640229Y1022859D01*
X1640729Y1022359D01*
X1641229D01*
X1640229Y1022859D02*
Y1023858D01*
X1544922Y1028568D02*
Y1031567D01*
X1543423D01*
X1542923Y1031067D01*
Y1030068D01*
X1543423Y1029568D01*
X1544922D01*
X1543922D02*
X1542923Y1028568D01*
X1541923D02*
X1540923D01*
X1541423D01*
Y1031567D01*
X1541923Y1031067D01*
X1572999Y920000D02*
X1570500D01*
X1570000Y920500D01*
Y921499D01*
X1570500Y921999D01*
X1572999D01*
X1570000Y922999D02*
Y923999D01*
Y923499D01*
X1572999D01*
X1572499Y922999D01*
X1652000Y1000000D02*
X1654500D01*
X1655000Y999500D01*
Y998501D01*
X1654500Y998001D01*
X1652000D01*
X1655000Y995002D02*
Y997001D01*
X1653000Y995002D01*
X1652500D01*
X1652000Y995501D01*
Y996501D01*
X1652500Y997001D01*
D26*
X1567900Y951250D02*
Y983250D01*
X1655900Y951250D02*
Y983250D01*
X1543500Y1008000D02*
Y1012000D01*
X1536500Y1008000D02*
Y1012000D01*
X1632000Y1041750D02*
Y1049750D01*
X1648000Y1041750D02*
Y1049750D01*
X1602000Y1041750D02*
Y1049750D01*
X1618000Y1041750D02*
Y1049750D01*
X1561750Y1068000D02*
X1569750D01*
X1561750Y1052000D02*
X1569750D01*
X1718000Y1040250D02*
Y1048250D01*
X1702000Y1040250D02*
Y1048250D01*
D40*
X1648900Y961250D02*
G03*
X1648900Y961250I-3000J0D01*
G01*
D41*
X1659750Y940000D02*
G03*
X1659750Y940000I-1250J0D01*
G01*
M02*
