G04 Layer_Physical_Order=1*
G04 Layer_Color=255*
%FSLAX44Y44*%
%MOMM*%
G71*
G01*
G75*
%ADD10R,1.8000X1.3000*%
%ADD11R,0.6000X1.4000*%
%ADD12R,0.3500X0.3500*%
%ADD13R,0.6700X1.6000*%
%ADD14R,3.0000X4.0000*%
%ADD15O,1.4500X0.6000*%
%ADD16C,0.1524*%
%ADD17C,0.2540*%
%ADD18C,1.1000*%
%ADD19R,1.1000X1.1000*%
%ADD20C,1.7000*%
%ADD21C,1.2700*%
%ADD22C,0.5000*%
G36*
X1720000Y1049120D02*
X1718730Y1048594D01*
X1716148Y1051176D01*
X1715392Y1051681D01*
X1714500Y1051859D01*
X1685040D01*
Y1057730D01*
X1679500D01*
Y1059000D01*
X1678230D01*
Y1068540D01*
X1675104D01*
X1674578Y1069810D01*
X1677286Y1072518D01*
X1677791Y1073274D01*
X1677969Y1074166D01*
Y1097077D01*
X1679239Y1097160D01*
X1679244Y1097118D01*
X1680357Y1094432D01*
X1682126Y1092126D01*
X1684433Y1090356D01*
X1687118Y1089244D01*
X1688730Y1089032D01*
Y1100000D01*
Y1110968D01*
X1687118Y1110756D01*
X1684433Y1109643D01*
X1682126Y1107874D01*
X1680357Y1105567D01*
X1679244Y1102882D01*
X1679239Y1102840D01*
X1677969Y1102923D01*
Y1108075D01*
X1677791Y1108967D01*
X1677286Y1109723D01*
X1671825Y1115184D01*
X1671069Y1115689D01*
X1670177Y1115867D01*
X1657350D01*
X1656458Y1115689D01*
X1655702Y1115184D01*
X1652146Y1111628D01*
X1651641Y1110872D01*
X1651463Y1109980D01*
Y1069040D01*
X1646114D01*
X1645266Y1070310D01*
X1645691Y1071337D01*
X1645829Y1072388D01*
X1628230D01*
X1628369Y1071337D01*
X1628794Y1070310D01*
X1628460Y1069040D01*
X1628460D01*
X1628460Y1069040D01*
Y1061270D01*
X1640000D01*
Y1058730D01*
X1628460D01*
Y1053256D01*
X1620524D01*
Y1068024D01*
X1620000D01*
Y1130000D01*
X1720000D01*
Y1049120D01*
D02*
G37*
G36*
X1618350Y1069040D02*
X1611270D01*
Y1060000D01*
X1608730D01*
Y1069040D01*
X1601007D01*
Y1080000D01*
X1618350D01*
Y1069040D01*
D02*
G37*
G36*
X1587709Y963010D02*
X1587887Y962118D01*
X1588392Y961362D01*
X1592202Y957552D01*
X1592958Y957047D01*
X1593850Y956869D01*
X1611866D01*
X1612488Y955938D01*
X1613985Y954939D01*
X1615750Y954587D01*
X1624250D01*
X1626015Y954939D01*
X1627511Y955938D01*
X1628511Y957435D01*
X1628862Y959200D01*
X1628511Y960965D01*
X1627511Y962462D01*
X1626015Y963462D01*
X1624250Y963813D01*
X1615750D01*
X1613985Y963462D01*
X1612488Y962462D01*
X1611866Y961531D01*
X1594815D01*
X1592371Y963975D01*
Y982257D01*
X1593641Y982783D01*
X1606172Y970252D01*
X1606928Y969747D01*
X1607820Y969569D01*
X1611866D01*
X1612488Y968638D01*
X1613985Y967638D01*
X1615750Y967287D01*
X1624250D01*
X1626015Y967638D01*
X1627511Y968638D01*
X1628511Y970135D01*
X1628862Y971900D01*
X1628511Y973665D01*
X1627511Y975162D01*
X1626015Y976161D01*
X1624250Y976513D01*
X1615750D01*
X1613985Y976161D01*
X1612488Y975162D01*
X1611866Y974231D01*
X1608785D01*
X1596943Y986073D01*
Y1010561D01*
X1598213Y1010813D01*
X1598656Y1009743D01*
X1599918Y1008098D01*
X1601563Y1006836D01*
X1603479Y1006043D01*
X1605534Y1005772D01*
X1607590Y1006043D01*
X1609505Y1006836D01*
X1610591Y1007669D01*
X1611866D01*
X1612488Y1006738D01*
X1613985Y1005739D01*
X1615750Y1005387D01*
X1623611D01*
X1624137Y1004117D01*
X1622682Y1002662D01*
X1622181Y1001913D01*
X1615750D01*
X1613985Y1001562D01*
X1612488Y1000562D01*
X1611488Y999065D01*
X1611137Y997300D01*
X1611488Y995535D01*
X1612488Y994038D01*
X1613985Y993038D01*
X1615750Y992687D01*
X1624250D01*
X1626015Y993038D01*
X1627511Y994038D01*
X1628511Y995535D01*
X1628862Y997300D01*
X1628511Y999065D01*
X1627511Y1000562D01*
X1627481Y1000869D01*
X1637106Y1010494D01*
X1661425D01*
X1662317Y1010672D01*
X1663073Y1011177D01*
X1666248Y1014352D01*
X1666754Y1015108D01*
X1666931Y1016000D01*
Y1031476D01*
X1674524D01*
X1674524Y1031476D01*
Y1031476D01*
X1675786Y1031456D01*
Y1015142D01*
X1675352Y1014613D01*
X1670250D01*
X1668485Y1014261D01*
X1666989Y1013262D01*
X1665989Y1011765D01*
X1665638Y1010000D01*
X1665989Y1008235D01*
X1666989Y1006738D01*
X1668485Y1005739D01*
X1670250Y1005387D01*
X1678750D01*
X1680515Y1005739D01*
X1682012Y1006738D01*
X1682634Y1007669D01*
X1683258D01*
X1684150Y1007847D01*
X1684906Y1008352D01*
X1685411Y1009108D01*
X1685589Y1010000D01*
X1685411Y1010892D01*
X1684906Y1011648D01*
X1680447Y1016107D01*
Y1042913D01*
X1682287Y1044752D01*
X1683460Y1044266D01*
Y1041270D01*
X1689000D01*
Y1038730D01*
X1683460D01*
Y1030460D01*
X1683580D01*
X1684016Y1029190D01*
X1682984Y1027845D01*
X1682191Y1025929D01*
X1681920Y1023874D01*
X1682191Y1021818D01*
X1682984Y1019903D01*
X1684246Y1018258D01*
X1685891Y1016996D01*
X1687807Y1016203D01*
X1689862Y1015932D01*
X1690839Y1016061D01*
X1693548Y1013352D01*
X1693717Y1013239D01*
X1693700Y1011771D01*
X1693517Y1011648D01*
X1689992Y1008123D01*
X1689487Y1007367D01*
X1689309Y1006475D01*
Y982040D01*
X1686992Y979723D01*
X1683535D01*
X1683003Y980993D01*
X1683969Y982438D01*
X1684146Y983330D01*
X1674500D01*
Y984600D01*
X1673230D01*
Y990248D01*
X1670250D01*
X1668089Y989819D01*
X1666256Y988594D01*
X1665031Y986762D01*
X1663774Y986949D01*
Y993424D01*
X1630726D01*
Y950376D01*
X1663774D01*
Y964361D01*
X1664947Y964847D01*
X1666281Y963514D01*
X1666989Y962462D01*
X1665989Y960965D01*
X1665638Y959200D01*
X1665989Y957435D01*
X1666989Y955938D01*
X1668485Y954939D01*
X1670250Y954587D01*
X1678750D01*
X1679324Y954702D01*
X1679324Y954701D01*
X1683415Y950610D01*
X1682892Y949337D01*
X1682298Y949334D01*
X1682012Y949762D01*
X1680515Y950761D01*
X1678750Y951113D01*
X1670250D01*
X1668485Y950761D01*
X1666989Y949762D01*
X1665989Y948265D01*
X1665638Y946500D01*
X1665989Y944735D01*
X1666989Y943238D01*
X1668485Y942238D01*
X1670250Y941887D01*
X1678750D01*
X1680515Y942238D01*
X1682012Y943238D01*
X1683578Y943296D01*
X1692356Y934518D01*
X1693112Y934012D01*
X1694004Y933835D01*
X1723502D01*
X1724394Y934012D01*
X1725150Y934518D01*
X1725483Y934850D01*
X1725988Y935606D01*
X1726165Y936498D01*
Y1004452D01*
X1725988Y1005344D01*
X1725483Y1006100D01*
X1719934Y1011648D01*
X1719695Y1011808D01*
X1719595Y1013242D01*
X1719608Y1013277D01*
X1719720Y1013352D01*
X1719958Y1013590D01*
X1720463Y1014346D01*
X1720641Y1015238D01*
Y1020000D01*
X1730000D01*
Y910000D01*
X1470000D01*
Y1070000D01*
Y1080000D01*
X1566881D01*
Y1070940D01*
X1559241Y1063300D01*
X1545652Y1049711D01*
X1545147Y1048955D01*
X1544969Y1048063D01*
Y946637D01*
X1543758Y946136D01*
X1542290Y945010D01*
X1541747Y944301D01*
X1540153D01*
X1539610Y945010D01*
X1538142Y946136D01*
X1536434Y946843D01*
X1534600Y947085D01*
X1532766Y946843D01*
X1531058Y946136D01*
X1529590Y945010D01*
X1529047Y944301D01*
X1527453D01*
X1526909Y945010D01*
X1525442Y946136D01*
X1523734Y946843D01*
X1521900Y947085D01*
X1520066Y946843D01*
X1518358Y946136D01*
X1516890Y945010D01*
X1516347Y944301D01*
X1514753D01*
X1514209Y945010D01*
X1512742Y946136D01*
X1511034Y946843D01*
X1509200Y947085D01*
X1507366Y946843D01*
X1505658Y946136D01*
X1504190Y945010D01*
X1503065Y943542D01*
X1502357Y941834D01*
X1502115Y940000D01*
X1502357Y938167D01*
X1503065Y936458D01*
X1504190Y934991D01*
X1504899Y934447D01*
Y932853D01*
X1504190Y932310D01*
X1503065Y930842D01*
X1502357Y929134D01*
X1502115Y927300D01*
X1502357Y925467D01*
X1503065Y923758D01*
X1504190Y922291D01*
X1505658Y921165D01*
X1507366Y920457D01*
X1509200Y920216D01*
X1511034Y920457D01*
X1512245Y920959D01*
X1519690Y913514D01*
X1520446Y913009D01*
X1521338Y912831D01*
X1622806D01*
X1623698Y913009D01*
X1624454Y913514D01*
X1631312Y920372D01*
X1631817Y921128D01*
X1631995Y922020D01*
Y946246D01*
X1631817Y947138D01*
X1631312Y947894D01*
X1631058Y948148D01*
X1630302Y948653D01*
X1629410Y948831D01*
X1628133D01*
X1627511Y949762D01*
X1626015Y950761D01*
X1624250Y951113D01*
X1615750D01*
X1613985Y950761D01*
X1612488Y949762D01*
X1611488Y948265D01*
X1611137Y946500D01*
X1611488Y944735D01*
X1612488Y943238D01*
X1613985Y942238D01*
X1615750Y941887D01*
X1624250D01*
X1626015Y942238D01*
X1626213Y942371D01*
X1627333Y941772D01*
Y938528D01*
X1626213Y937929D01*
X1626015Y938062D01*
X1624250Y938413D01*
X1615750D01*
X1613985Y938062D01*
X1612488Y937062D01*
X1611866Y936131D01*
X1596390D01*
X1595498Y935953D01*
X1594742Y935448D01*
X1580597Y921303D01*
X1565645D01*
X1565226Y922573D01*
X1566135Y923758D01*
X1566843Y925467D01*
X1567085Y927300D01*
X1566843Y929134D01*
X1566198Y930690D01*
X1566646Y931878D01*
X1566687Y931960D01*
X1568040D01*
Y938730D01*
X1560000D01*
Y940000D01*
X1558730D01*
Y948040D01*
X1551960D01*
Y946687D01*
X1551877Y946646D01*
X1550724Y946212D01*
X1549631Y946814D01*
Y1047097D01*
X1557287Y1054753D01*
X1558460Y1054267D01*
Y1051270D01*
X1570000D01*
Y1050000D01*
X1571270D01*
Y1040960D01*
X1579073D01*
Y1033870D01*
X1574728Y1029524D01*
X1559476D01*
Y1013476D01*
X1579073D01*
Y1009040D01*
X1571270D01*
Y1000000D01*
Y990960D01*
X1579073D01*
Y979524D01*
X1559476D01*
Y963476D01*
X1580524D01*
Y969169D01*
X1581150D01*
X1582042Y969347D01*
X1582798Y969852D01*
X1583052Y970106D01*
X1583557Y970862D01*
X1583735Y971754D01*
Y1032904D01*
Y1058223D01*
X1583557Y1059115D01*
X1583052Y1059871D01*
X1579623Y1063300D01*
X1578867Y1063805D01*
X1577975Y1063983D01*
X1568175D01*
X1567689Y1065156D01*
X1570860Y1068327D01*
X1571365Y1069083D01*
X1571543Y1069975D01*
Y1080000D01*
X1587709D01*
Y963010D01*
D02*
G37*
%LPC*%
G36*
X1678750Y990248D02*
X1675770D01*
Y985870D01*
X1684146D01*
X1683969Y986762D01*
X1682744Y988594D01*
X1680912Y989819D01*
X1678750Y990248D01*
D02*
G37*
G36*
X1501270Y1000968D02*
Y991270D01*
X1510968D01*
X1510756Y992882D01*
X1509644Y995568D01*
X1507874Y997874D01*
X1505568Y999643D01*
X1502882Y1000756D01*
X1501270Y1000968D01*
D02*
G37*
G36*
X1498730D02*
X1497118Y1000756D01*
X1494432Y999643D01*
X1492126Y997874D01*
X1490357Y995568D01*
X1489244Y992882D01*
X1489032Y991270D01*
X1498730D01*
Y1000968D01*
D02*
G37*
G36*
X1568730Y998730D02*
X1558460D01*
Y990960D01*
X1568730D01*
Y998730D01*
D02*
G37*
G36*
X1568040Y948040D02*
X1561270D01*
Y941270D01*
X1568040D01*
Y948040D01*
D02*
G37*
G36*
X1678750Y938413D02*
X1670250D01*
X1668485Y938062D01*
X1666989Y937062D01*
X1666366Y936131D01*
X1650842D01*
X1649950Y935953D01*
X1649413Y935595D01*
X1647722Y936295D01*
X1645666Y936566D01*
X1643611Y936295D01*
X1641695Y935502D01*
X1640050Y934240D01*
X1638788Y932595D01*
X1637995Y930679D01*
X1637724Y928624D01*
X1637995Y926569D01*
X1638788Y924653D01*
X1640050Y923008D01*
X1641695Y921746D01*
X1643611Y920953D01*
X1645666Y920682D01*
X1647722Y920953D01*
X1649637Y921746D01*
X1651282Y923008D01*
X1652544Y924653D01*
X1653337Y926569D01*
X1653608Y928624D01*
X1653401Y930199D01*
X1654236Y931469D01*
X1666366D01*
X1666989Y930538D01*
X1668485Y929538D01*
X1670250Y929187D01*
X1678750D01*
X1680515Y929538D01*
X1682012Y930538D01*
X1683012Y932035D01*
X1683363Y933800D01*
X1683012Y935565D01*
X1682012Y937062D01*
X1680515Y938062D01*
X1678750Y938413D01*
D02*
G37*
G36*
X1498730Y988730D02*
X1489032D01*
X1489244Y987118D01*
X1490357Y984432D01*
X1492126Y982126D01*
X1494432Y980357D01*
X1497118Y979244D01*
X1498730Y979032D01*
Y988730D01*
D02*
G37*
G36*
X1624250Y989213D02*
X1615750D01*
X1613985Y988861D01*
X1612488Y987862D01*
X1611488Y986365D01*
X1611137Y984600D01*
X1611488Y982835D01*
X1612488Y981338D01*
X1613985Y980339D01*
X1615750Y979987D01*
X1624250D01*
X1626015Y980339D01*
X1627511Y981338D01*
X1628511Y982835D01*
X1628862Y984600D01*
X1628511Y986365D01*
X1627511Y987862D01*
X1626015Y988861D01*
X1624250Y989213D01*
D02*
G37*
G36*
X1510968Y988730D02*
X1501270D01*
Y979032D01*
X1502882Y979244D01*
X1505568Y980357D01*
X1507874Y982126D01*
X1509644Y984432D01*
X1510756Y987118D01*
X1510968Y988730D01*
D02*
G37*
G36*
X1678750Y1001913D02*
X1670250D01*
X1668485Y1001562D01*
X1666989Y1000562D01*
X1665989Y999065D01*
X1665638Y997300D01*
X1665989Y995535D01*
X1666989Y994038D01*
X1668485Y993038D01*
X1670250Y992687D01*
X1678750D01*
X1680515Y993038D01*
X1682012Y994038D01*
X1683012Y995535D01*
X1683363Y997300D01*
X1683012Y999065D01*
X1682012Y1000562D01*
X1680515Y1001562D01*
X1678750Y1001913D01*
D02*
G37*
G36*
X1638300Y1082458D02*
Y1074928D01*
X1645829D01*
X1645691Y1075979D01*
X1644795Y1078141D01*
X1643370Y1079998D01*
X1641513Y1081423D01*
X1639351Y1082319D01*
X1638300Y1082458D01*
D02*
G37*
G36*
X1635760D02*
X1634709Y1082319D01*
X1632547Y1081423D01*
X1630690Y1079998D01*
X1629265Y1078141D01*
X1628369Y1075979D01*
X1628230Y1074928D01*
X1635760D01*
Y1082458D01*
D02*
G37*
G36*
X1700968Y1098730D02*
X1691270D01*
Y1089032D01*
X1692882Y1089244D01*
X1695568Y1090356D01*
X1697874Y1092126D01*
X1699644Y1094432D01*
X1700756Y1097118D01*
X1700968Y1098730D01*
D02*
G37*
G36*
X1691270Y1110968D02*
Y1101270D01*
X1700968D01*
X1700756Y1102882D01*
X1699644Y1105567D01*
X1697874Y1107874D01*
X1695568Y1109643D01*
X1692882Y1110756D01*
X1691270Y1110968D01*
D02*
G37*
G36*
X1639200Y1110110D02*
X1636583Y1109766D01*
X1634145Y1108756D01*
X1632051Y1107149D01*
X1630444Y1105055D01*
X1629434Y1102617D01*
X1629090Y1100000D01*
X1629434Y1097383D01*
X1630444Y1094945D01*
X1632051Y1092851D01*
X1634145Y1091244D01*
X1636583Y1090234D01*
X1639200Y1089889D01*
X1641817Y1090234D01*
X1644255Y1091244D01*
X1646349Y1092851D01*
X1647956Y1094945D01*
X1648966Y1097383D01*
X1649311Y1100000D01*
X1648966Y1102617D01*
X1647956Y1105055D01*
X1646349Y1107149D01*
X1644255Y1108756D01*
X1641817Y1109766D01*
X1639200Y1110110D01*
D02*
G37*
G36*
X1500000Y1025510D02*
X1497383Y1025166D01*
X1494945Y1024156D01*
X1492851Y1022549D01*
X1491244Y1020455D01*
X1490234Y1018017D01*
X1489890Y1015400D01*
X1490234Y1012783D01*
X1491244Y1010345D01*
X1492851Y1008251D01*
X1494945Y1006644D01*
X1497383Y1005634D01*
X1500000Y1005290D01*
X1502617Y1005634D01*
X1505055Y1006644D01*
X1507149Y1008251D01*
X1508756Y1010345D01*
X1509766Y1012783D01*
X1510110Y1015400D01*
X1509766Y1018017D01*
X1508756Y1020455D01*
X1507149Y1022549D01*
X1505055Y1024156D01*
X1502617Y1025166D01*
X1500000Y1025510D01*
D02*
G37*
G36*
X1568730Y1009040D02*
X1558460D01*
Y1001270D01*
X1568730D01*
Y1009040D01*
D02*
G37*
G36*
X1500000Y1050910D02*
X1497383Y1050566D01*
X1494945Y1049556D01*
X1492851Y1047949D01*
X1491244Y1045855D01*
X1490234Y1043417D01*
X1489890Y1040800D01*
X1490234Y1038183D01*
X1491244Y1035745D01*
X1492851Y1033651D01*
X1494945Y1032044D01*
X1497383Y1031034D01*
X1500000Y1030690D01*
X1502617Y1031034D01*
X1505055Y1032044D01*
X1507149Y1033651D01*
X1508756Y1035745D01*
X1509766Y1038183D01*
X1510110Y1040800D01*
X1509766Y1043417D01*
X1508756Y1045855D01*
X1507149Y1047949D01*
X1505055Y1049556D01*
X1502617Y1050566D01*
X1500000Y1050910D01*
D02*
G37*
G36*
X1685040Y1068540D02*
X1680770D01*
Y1060270D01*
X1685040D01*
Y1068540D01*
D02*
G37*
G36*
X1568730Y1048730D02*
X1558460D01*
Y1040960D01*
X1568730D01*
Y1048730D01*
D02*
G37*
%LPD*%
D10*
X1570000Y1050000D02*
D03*
Y1021500D02*
D03*
Y1000000D02*
D03*
Y971500D02*
D03*
X1610000Y1060000D02*
D03*
Y1031500D02*
D03*
X1640000Y1060000D02*
D03*
Y1031500D02*
D03*
D11*
X1689000Y1040000D02*
D03*
X1670000D02*
D03*
X1679500Y1059000D02*
D03*
D12*
X1700000Y1020000D02*
D03*
Y1015000D02*
D03*
Y1010000D02*
D03*
Y1005000D02*
D03*
X1714200Y1020000D02*
D03*
Y1015000D02*
D03*
Y1010000D02*
D03*
Y1005000D02*
D03*
D13*
X1707100Y1012500D02*
D03*
D14*
X1647250Y971900D02*
D03*
D15*
X1674500Y933800D02*
D03*
Y946500D02*
D03*
Y959200D02*
D03*
Y971900D02*
D03*
Y984600D02*
D03*
Y997300D02*
D03*
Y1010000D02*
D03*
X1620000Y933800D02*
D03*
Y946500D02*
D03*
Y959200D02*
D03*
Y971900D02*
D03*
Y984600D02*
D03*
Y997300D02*
D03*
Y1010000D02*
D03*
D16*
X1637538Y1060000D02*
Y1060059D01*
X1684975Y1032510D02*
X1701690D01*
X1557020Y940000D02*
Y1049746D01*
X1637538Y1060059D02*
Y1073150D01*
Y1060059D02*
X1640000Y1060000D01*
X1629410Y1060254D02*
X1637538Y1060059D01*
X1629918Y994410D02*
X1638300Y1002792D01*
X1624330Y997300D02*
Y1001014D01*
X1678116Y1015142D02*
X1683258Y1010000D01*
X1680972Y956349D02*
Y959200D01*
X1598676Y1035818D02*
Y1052576D01*
Y1086866D01*
X1581404Y1032904D02*
Y1058223D01*
Y971754D02*
Y1032904D01*
X1610000Y1031500D02*
X1640000D01*
X1602994D02*
X1610000D01*
X1560889Y1061652D02*
X1569212Y1069975D01*
X1547300Y1048063D02*
X1560889Y1061652D01*
X1529200Y1100000D02*
X1543796Y1114596D01*
X1603757D01*
X1629410Y1088944D01*
Y1060254D02*
Y1088944D01*
X1637538Y1060000D02*
X1640000D01*
X1573008Y953008D02*
X1625600D01*
X1629664Y957072D02*
Y994156D01*
X1629918Y994410D01*
X1664462D01*
X1665224Y993648D01*
Y984854D02*
Y993648D01*
Y984854D02*
X1665478Y984600D01*
X1674500D01*
X1701690Y1032510D02*
X1714200Y1020000D01*
X1681165Y1028700D02*
X1684975Y1032510D01*
X1681165Y1019175D02*
Y1028700D01*
Y1019175D02*
X1688338Y1012001D01*
Y1006475D02*
Y1012001D01*
X1684655Y1002792D02*
X1688338Y1006475D01*
X1638300Y1002792D02*
X1684655D01*
X1625600Y953008D02*
X1629664Y957072D01*
X1560000Y940000D02*
X1573008Y953008D01*
X1650842Y933800D02*
X1674500D01*
X1645666Y928624D02*
X1650842Y933800D01*
X1607820Y971900D02*
X1620000D01*
X1594612Y985108D02*
X1607820Y971900D01*
X1594612Y985108D02*
Y1096772D01*
X1596390Y1098550D01*
X1620000Y997300D02*
X1624330D01*
Y1001014D02*
X1636141Y1012825D01*
X1661425D01*
X1664600Y1016000D01*
Y1100000D01*
X1689862Y1020334D02*
Y1023874D01*
Y1020334D02*
X1695196Y1015000D01*
X1700000D01*
X1547300Y940000D02*
Y1048063D01*
X1570000Y1021500D02*
X1581404Y1032904D01*
X1574800Y1110996D02*
X1601216D01*
X1605026Y1093216D02*
Y1107186D01*
X1598676Y1052576D02*
X1600327Y1050925D01*
X1650619D01*
X1653794Y1054100D01*
Y1109980D01*
X1657350Y1113536D01*
X1670177D01*
X1675638Y1108075D01*
Y1074166D02*
Y1108075D01*
X1670000Y1068528D02*
X1675638Y1074166D01*
X1670000Y1040000D02*
Y1068528D01*
X1570000Y971500D02*
X1581150D01*
X1581404Y971754D01*
X1577975Y1061652D02*
X1581404Y1058223D01*
X1560889Y1061652D02*
X1577975D01*
X1569212Y1069975D02*
Y1105408D01*
X1574800Y1110996D01*
X1598676Y1086866D02*
X1605026Y1093216D01*
X1598676Y1035818D02*
X1602994Y1031500D01*
X1674500Y971900D02*
X1689258D01*
X1698498Y962660D01*
X1605534Y1013714D02*
X1609248Y1010000D01*
X1620000D01*
X1601216Y1110996D02*
X1605026Y1107186D01*
X1698498Y962660D02*
Y992908D01*
X1700000Y994410D01*
Y1005000D01*
X1693886Y950000D02*
X1710000D01*
X1689862Y954024D02*
X1693886Y950000D01*
X1689862Y954024D02*
Y960755D01*
X1685925Y964692D02*
X1689862Y960755D01*
X1668399Y964692D02*
X1685925D01*
X1664716Y968375D02*
X1668399Y964692D01*
X1664716Y968375D02*
Y977138D01*
X1664970Y977392D01*
X1687957D01*
X1691640Y981075D01*
Y1006475D01*
X1695165Y1010000D01*
X1700000D01*
X1714200Y1005000D02*
X1718056D01*
X1720786Y1002269D01*
Y942975D02*
Y1002269D01*
X1717025Y939214D02*
X1720786Y942975D01*
X1698107Y939214D02*
X1717025D01*
X1680972Y956349D02*
X1698107Y939214D01*
X1674500Y959200D02*
X1680972D01*
X1714200Y1010000D02*
X1718286D01*
X1723835Y1004452D01*
Y936498D02*
Y1004452D01*
X1723502Y936166D02*
X1723835Y936498D01*
X1694004Y936166D02*
X1723502D01*
X1683670Y946500D02*
X1694004Y936166D01*
X1674500Y946500D02*
X1683670D01*
X1637030Y1073658D02*
X1637538Y1073150D01*
X1674500Y1010000D02*
X1683258D01*
X1678116Y1015142D02*
Y1043878D01*
X1683766Y1049528D01*
X1714500D01*
X1718310Y1045718D01*
Y1015238D02*
Y1045718D01*
X1718072Y1015000D02*
X1718310Y1015238D01*
X1714200Y1015000D02*
X1718072D01*
X1593850Y959200D02*
X1620000D01*
X1590040Y963010D02*
X1593850Y959200D01*
X1590040Y963010D02*
Y1089960D01*
X1580000Y1100000D02*
X1590040Y1089960D01*
X1620000Y946500D02*
X1629410D01*
X1629664Y946246D01*
Y922020D02*
Y946246D01*
X1622806Y915162D02*
X1629664Y922020D01*
X1521338Y915162D02*
X1622806D01*
X1509200Y927300D02*
X1521338Y915162D01*
X1557020Y940000D02*
X1560000D01*
X1557020Y1049746D02*
X1557274Y1050000D01*
X1570000D01*
X1596390Y933800D02*
X1620000D01*
X1581562Y918972D02*
X1596390Y933800D01*
X1555628Y918972D02*
X1581562D01*
X1547300Y927300D02*
X1555628Y918972D01*
X1389142Y999431D02*
Y989275D01*
X1378985Y999431D01*
X1376446D01*
X1373907Y996892D01*
Y991814D01*
X1376446Y989275D01*
X1389142Y1004510D02*
X1386602D01*
Y1007049D01*
X1389142D01*
Y1004510D01*
Y1027362D02*
Y1017206D01*
X1378985Y1027362D01*
X1376446D01*
X1373907Y1024823D01*
Y1019745D01*
X1376446Y1017206D01*
Y1032441D02*
X1373907Y1034980D01*
Y1040058D01*
X1376446Y1042597D01*
X1386602D01*
X1389142Y1040058D01*
Y1034980D01*
X1386602Y1032441D01*
X1376446D01*
X1579431Y830859D02*
X1569275D01*
X1579431Y841015D01*
Y843554D01*
X1576892Y846094D01*
X1571814D01*
X1569275Y843554D01*
X1584510Y830859D02*
Y833398D01*
X1587049D01*
Y830859D01*
X1584510D01*
X1607362Y846094D02*
X1602284Y843554D01*
X1597206Y838476D01*
Y833398D01*
X1599745Y830859D01*
X1604823D01*
X1607362Y833398D01*
Y835937D01*
X1604823Y838476D01*
X1597206D01*
X1612441Y843554D02*
X1614980Y846094D01*
X1620058D01*
X1622597Y843554D01*
Y833398D01*
X1620058Y830859D01*
X1614980D01*
X1612441Y833398D01*
Y843554D01*
D17*
X1377460Y910000D02*
X1410000D01*
X1377460Y1130000D02*
X1410000D01*
X1380000Y910000D02*
Y985211D01*
Y1046661D02*
Y1130000D01*
Y910000D02*
X1385080Y925240D01*
X1374920D02*
X1380000Y910000D01*
X1374920Y1114760D02*
X1380000Y1130000D01*
X1385080Y1114760D01*
X1730000Y837460D02*
Y900000D01*
X1470000Y837460D02*
Y890000D01*
X1626661Y840000D02*
X1730000D01*
X1470000D02*
X1565211D01*
X1714760Y845080D02*
X1730000Y840000D01*
X1714760Y834920D02*
X1730000Y840000D01*
X1470000D02*
X1485240Y834920D01*
X1470000Y840000D02*
X1485240Y845080D01*
D18*
X1509200Y927300D02*
D03*
X1521900D02*
D03*
X1534600D02*
D03*
X1547300D02*
D03*
X1560000D02*
D03*
X1509200Y940000D02*
D03*
X1521900D02*
D03*
X1534600D02*
D03*
X1547300D02*
D03*
D19*
X1560000D02*
D03*
D20*
X1529200Y1100000D02*
D03*
X1554600D02*
D03*
X1580000D02*
D03*
X1503800D02*
D03*
X1710000Y950000D02*
D03*
Y975400D02*
D03*
X1639200Y1100000D02*
D03*
X1664600D02*
D03*
X1690000D02*
D03*
X1500000Y990000D02*
D03*
Y1015400D02*
D03*
Y1040800D02*
D03*
D21*
X1637030Y1073658D02*
D03*
X1645666Y928624D02*
D03*
X1596390Y1098550D02*
D03*
X1689862Y1023874D02*
D03*
X1698498Y962660D02*
D03*
X1605534Y1013714D02*
D03*
D22*
X1658250Y955400D02*
D03*
X1647250D02*
D03*
X1636250D02*
D03*
X1658250Y966400D02*
D03*
X1647250D02*
D03*
X1636250D02*
D03*
X1658250Y977400D02*
D03*
X1647250D02*
D03*
X1636250D02*
D03*
X1658250Y988400D02*
D03*
X1647250D02*
D03*
X1636250D02*
D03*
M02*
