G04 Layer_Color=8388736*
%FSLAX44Y44*%
%MOMM*%
G71*
G01*
G75*
%ADD30R,2.0032X1.5032*%
%ADD31R,0.8032X1.6032*%
%ADD32R,0.5532X0.5532*%
%ADD33R,0.8732X1.8032*%
%ADD34R,3.2032X4.2032*%
%ADD35O,1.6532X0.8032*%
%ADD36C,1.3032*%
%ADD37R,1.3032X1.3032*%
%ADD38C,1.9032*%
%ADD39C,1.4732*%
%ADD40C,0.7032*%
D30*
X1570000Y1050000D02*
D03*
Y1021500D02*
D03*
Y1000000D02*
D03*
Y971500D02*
D03*
X1610000Y1060000D02*
D03*
Y1031500D02*
D03*
X1640000Y1060000D02*
D03*
Y1031500D02*
D03*
D31*
X1689000Y1040000D02*
D03*
X1670000D02*
D03*
X1679500Y1059000D02*
D03*
D32*
X1700000Y1020000D02*
D03*
Y1015000D02*
D03*
Y1010000D02*
D03*
Y1005000D02*
D03*
X1714200Y1020000D02*
D03*
Y1015000D02*
D03*
Y1010000D02*
D03*
Y1005000D02*
D03*
D33*
X1707100Y1012500D02*
D03*
D34*
X1647250Y971900D02*
D03*
D35*
X1674500Y933800D02*
D03*
Y946500D02*
D03*
Y959200D02*
D03*
Y971900D02*
D03*
Y984600D02*
D03*
Y997300D02*
D03*
Y1010000D02*
D03*
X1620000Y933800D02*
D03*
Y946500D02*
D03*
Y959200D02*
D03*
Y971900D02*
D03*
Y984600D02*
D03*
Y997300D02*
D03*
Y1010000D02*
D03*
D36*
X1509200Y927300D02*
D03*
X1521900D02*
D03*
X1534600D02*
D03*
X1547300D02*
D03*
X1560000D02*
D03*
X1509200Y940000D02*
D03*
X1521900D02*
D03*
X1534600D02*
D03*
X1547300D02*
D03*
D37*
X1560000D02*
D03*
D38*
X1529200Y1100000D02*
D03*
X1554600D02*
D03*
X1580000D02*
D03*
X1503800D02*
D03*
X1710000Y950000D02*
D03*
Y975400D02*
D03*
X1639200Y1100000D02*
D03*
X1664600D02*
D03*
X1690000D02*
D03*
X1500000Y990000D02*
D03*
Y1015400D02*
D03*
Y1040800D02*
D03*
D39*
X1637030Y1073658D02*
D03*
X1645666Y928624D02*
D03*
X1596390Y1098550D02*
D03*
X1689862Y1023874D02*
D03*
X1698498Y962660D02*
D03*
X1605534Y1013714D02*
D03*
D40*
X1658250Y955400D02*
D03*
X1647250D02*
D03*
X1636250D02*
D03*
X1658250Y966400D02*
D03*
X1647250D02*
D03*
X1636250D02*
D03*
X1658250Y977400D02*
D03*
X1647250D02*
D03*
X1636250D02*
D03*
X1658250Y988400D02*
D03*
X1647250D02*
D03*
X1636250D02*
D03*
M02*
