G04 Layer_Color=16711935*
%FSLAX44Y44*%
%MOMM*%
G71*
G01*
G75*
%ADD25C,0.1000*%
D25*
X1709100Y1014500D02*
G03*
X1709100Y1014500I-4000J0D01*
G01*
X1641250Y1006900D02*
G03*
X1641250Y1006900I-5000J0D01*
G01*
X1561250Y1052500D02*
X1578750D01*
X1561250Y1019000D02*
X1578750D01*
Y1052500D01*
X1561250Y1019000D02*
Y1052500D01*
X1544750Y1001500D02*
Y1018500D01*
X1535250Y1001500D02*
Y1018500D01*
Y1001500D02*
X1544750D01*
X1535250Y1018500D02*
X1544750D01*
X1631250Y1062500D02*
X1648750D01*
X1631250Y1029000D02*
X1648750D01*
X1631250D02*
Y1062500D01*
X1648750Y1029000D02*
Y1062500D01*
X1601250D02*
X1618750D01*
X1601250Y1029000D02*
X1618750D01*
X1601250D02*
Y1062500D01*
X1618750Y1029000D02*
Y1062500D01*
X1662500Y1001250D02*
Y1018750D01*
X1629000Y1001250D02*
Y1018750D01*
X1662500D01*
X1629000Y1001250D02*
X1662500D01*
X1701250Y1027500D02*
X1718750D01*
X1701250Y1061000D02*
X1718750D01*
Y1027500D02*
Y1061000D01*
X1701250Y1027500D02*
Y1061000D01*
X1662500Y931250D02*
Y948750D01*
X1629000Y931250D02*
Y948750D01*
X1662500D01*
X1629000Y931250D02*
X1662500D01*
X1694500Y1042500D02*
Y1056500D01*
X1664500Y1042500D02*
X1694500D01*
X1664500D02*
Y1056500D01*
X1694500D01*
X1561250Y1002500D02*
X1578750D01*
X1561250Y969000D02*
X1578750D01*
Y1002500D01*
X1561250Y969000D02*
Y1002500D01*
X1601250Y1062500D02*
X1618750D01*
X1601250Y1029000D02*
X1618750D01*
Y1062500D01*
X1601250Y1029000D02*
Y1062500D01*
X1631250D02*
X1648750D01*
X1631250Y1029000D02*
X1648750D01*
Y1062500D01*
X1631250Y1029000D02*
Y1062500D01*
X1697100Y1002500D02*
Y1022500D01*
X1717100Y1002500D02*
Y1022500D01*
X1697100D02*
X1717100D01*
X1697100Y1002500D02*
X1717100D01*
X1627250Y927900D02*
X1667250D01*
X1627250Y1015900D02*
X1667250D01*
Y927900D02*
Y1015900D01*
X1627250Y927900D02*
Y1015900D01*
M02*
