G04 Layer_Color=32768*
%FSLAX44Y44*%
%MOMM*%
G71*
G01*
G75*
%ADD25C,0.1000*%
%ADD43C,0.0500*%
D25*
X1570000Y1030750D02*
Y1040750D01*
X1565000Y1035750D02*
X1575000D01*
X1535250Y1010000D02*
X1544750D01*
X1540000Y1005250D02*
Y1014750D01*
X1545500Y998000D02*
Y1022000D01*
X1534500Y998000D02*
Y1022000D01*
Y998000D02*
X1545500D01*
X1534500Y1022000D02*
X1545500D01*
X1640000Y1040750D02*
Y1050750D01*
X1635000Y1045750D02*
X1645000D01*
X1610000Y1040750D02*
Y1050750D01*
X1605000Y1045750D02*
X1615000D01*
X1640750Y1010000D02*
X1650750D01*
X1645750Y1005000D02*
Y1015000D01*
X1710000Y1039250D02*
Y1049250D01*
X1705000Y1044250D02*
X1715000D01*
X1640750Y940000D02*
X1650750D01*
X1645750Y935000D02*
Y945000D01*
X1662000Y1030750D02*
X1697000D01*
Y1068250D01*
X1662000Y1030750D02*
Y1068250D01*
X1697000D01*
X1679500Y1044500D02*
Y1054500D01*
X1674500Y1049500D02*
X1684500D01*
X1570000Y980750D02*
Y990750D01*
X1565000Y985750D02*
X1575000D01*
X1610000Y1040750D02*
Y1050750D01*
X1605000Y1045750D02*
X1615000D01*
X1640000Y1040750D02*
Y1050750D01*
X1635000Y1045750D02*
X1645000D01*
X1702100Y1012500D02*
X1712100D01*
X1707100Y1007500D02*
Y1017500D01*
X1647250Y966900D02*
Y976900D01*
X1642250Y971900D02*
X1652250D01*
D43*
X1558500Y1058750D02*
X1581500D01*
X1558500Y1012750D02*
X1581500D01*
Y1058750D01*
X1558500Y1012750D02*
Y1058750D01*
X1628500Y1068750D02*
X1651500D01*
X1628500Y1022750D02*
X1651500D01*
X1628500D02*
Y1068750D01*
X1651500Y1022750D02*
Y1068750D01*
X1598500D02*
X1621500D01*
X1598500Y1022750D02*
X1621500D01*
X1598500D02*
Y1068750D01*
X1621500Y1022750D02*
Y1068750D01*
X1668750Y998500D02*
Y1021500D01*
X1622750Y998500D02*
Y1021500D01*
X1668750D01*
X1622750Y998500D02*
X1668750D01*
X1698500Y1021250D02*
X1721500D01*
X1698500Y1067250D02*
X1721500D01*
Y1021250D02*
Y1067250D01*
X1698500Y1021250D02*
Y1067250D01*
X1668750Y928500D02*
Y951500D01*
X1622750Y928500D02*
Y951500D01*
X1668750D01*
X1622750Y928500D02*
X1668750D01*
X1558500Y1008750D02*
X1581500D01*
X1558500Y962750D02*
X1581500D01*
Y1008750D01*
X1558500Y962750D02*
Y1008750D01*
X1598500Y1068750D02*
X1621500D01*
X1598500Y1022750D02*
X1621500D01*
Y1068750D01*
X1598500Y1022750D02*
Y1068750D01*
X1628500D02*
X1651500D01*
X1628500Y1022750D02*
X1651500D01*
Y1068750D01*
X1628500Y1022750D02*
Y1068750D01*
X1695550Y1000000D02*
Y1025000D01*
X1718650Y1000000D02*
Y1025000D01*
X1695550D02*
X1718650D01*
X1695550Y1000000D02*
X1718650D01*
X1610250Y925400D02*
X1684250D01*
X1610250Y1018400D02*
X1684250D01*
Y925400D02*
Y1018400D01*
X1610250Y925400D02*
Y1018400D01*
M02*
