G04 Layer_Color=16711935*
%FSLAX44Y44*%
%MOMM*%
G71*
G01*
G75*
%ADD30R,2.0032X1.5032*%
%ADD36C,1.3032*%
%ADD37R,1.3032X1.3032*%
%ADD38C,1.9032*%
%ADD39C,1.4732*%
%ADD40C,0.7032*%
%ADD41R,1.1032X0.9032*%
%ADD42R,1.5032X2.0032*%
D30*
X1640000Y1060000D02*
D03*
Y1031500D02*
D03*
X1610000Y1060000D02*
D03*
Y1031500D02*
D03*
X1710000Y1030000D02*
D03*
Y1058500D02*
D03*
D36*
X1509200Y927300D02*
D03*
X1521900D02*
D03*
X1534600D02*
D03*
X1547300D02*
D03*
X1560000D02*
D03*
X1509200Y940000D02*
D03*
X1521900D02*
D03*
X1534600D02*
D03*
X1547300D02*
D03*
D37*
X1560000D02*
D03*
D38*
X1529200Y1100000D02*
D03*
X1554600D02*
D03*
X1580000D02*
D03*
X1503800D02*
D03*
X1710000Y950000D02*
D03*
Y975400D02*
D03*
X1639200Y1100000D02*
D03*
X1664600D02*
D03*
X1690000D02*
D03*
X1500000Y990000D02*
D03*
Y1015400D02*
D03*
Y1040800D02*
D03*
D39*
X1637030Y1073658D02*
D03*
X1645666Y928624D02*
D03*
X1596390Y1098550D02*
D03*
X1689862Y1023874D02*
D03*
X1698498Y962660D02*
D03*
X1605534Y1013714D02*
D03*
D40*
X1658250Y955400D02*
D03*
X1647250D02*
D03*
X1636250D02*
D03*
X1658250Y966400D02*
D03*
X1647250D02*
D03*
X1636250D02*
D03*
X1658250Y977400D02*
D03*
X1647250D02*
D03*
X1636250D02*
D03*
X1658250Y988400D02*
D03*
X1647250D02*
D03*
X1636250D02*
D03*
D41*
X1540000Y1002500D02*
D03*
Y1017500D02*
D03*
D42*
X1660000Y1010000D02*
D03*
X1631500D02*
D03*
X1660000Y940000D02*
D03*
X1631500D02*
D03*
M02*
