G04 Layer_Color=255*
%FSLAX44Y44*%
%MOMM*%
G71*
G01*
G75*
%ADD10R,1.8000X1.3000*%
%ADD11R,0.6000X1.4000*%
%ADD12R,0.3500X0.3500*%
%ADD13R,0.6700X1.6000*%
%ADD14R,3.0000X4.0000*%
%ADD15O,1.4500X0.6000*%
%ADD18C,1.1000*%
%ADD19R,1.1000X1.1000*%
%ADD20C,1.7000*%
D10*
X1570000Y1050000D02*
D03*
Y1021500D02*
D03*
Y1000000D02*
D03*
Y971500D02*
D03*
X1610000Y1060000D02*
D03*
Y1031500D02*
D03*
X1640000Y1060000D02*
D03*
Y1031500D02*
D03*
D11*
X1689000Y1040000D02*
D03*
X1670000D02*
D03*
X1679500Y1059000D02*
D03*
D12*
X1700000Y1020000D02*
D03*
Y1015000D02*
D03*
Y1010000D02*
D03*
Y1005000D02*
D03*
X1714200Y1020000D02*
D03*
Y1015000D02*
D03*
Y1010000D02*
D03*
Y1005000D02*
D03*
D13*
X1707100Y1012500D02*
D03*
D14*
X1647250Y971900D02*
D03*
D15*
X1674500Y933800D02*
D03*
Y946500D02*
D03*
Y959200D02*
D03*
Y971900D02*
D03*
Y984600D02*
D03*
Y997300D02*
D03*
Y1010000D02*
D03*
X1620000Y933800D02*
D03*
Y946500D02*
D03*
Y959200D02*
D03*
Y971900D02*
D03*
Y984600D02*
D03*
Y997300D02*
D03*
Y1010000D02*
D03*
D18*
X1509200Y927300D02*
D03*
X1521900D02*
D03*
X1534600D02*
D03*
X1547300D02*
D03*
X1560000D02*
D03*
X1509200Y940000D02*
D03*
X1521900D02*
D03*
X1534600D02*
D03*
X1547300D02*
D03*
D19*
X1560000D02*
D03*
D20*
X1529200Y1100000D02*
D03*
X1554600D02*
D03*
X1580000D02*
D03*
X1503800D02*
D03*
X1710000Y950000D02*
D03*
Y975400D02*
D03*
X1639200Y1100000D02*
D03*
X1664600D02*
D03*
X1690000D02*
D03*
X1500000Y990000D02*
D03*
Y1015400D02*
D03*
Y1040800D02*
D03*
M02*
