G04 Layer_Color=32896*
%FSLAX44Y44*%
%MOMM*%
G71*
G01*
G75*
%ADD25C,0.1000*%
%ADD28C,0.2000*%
D25*
X1544922Y1028568D02*
Y1031567D01*
X1543423D01*
X1542923Y1031067D01*
Y1030068D01*
X1543423Y1029568D01*
X1544922D01*
X1543922D02*
X1542923Y1028568D01*
X1541923D02*
X1540923D01*
X1541423D01*
Y1031567D01*
X1541923Y1031067D01*
X1641229Y1021359D02*
X1641729Y1020860D01*
Y1019860D01*
X1641229Y1019360D01*
X1639230D01*
X1638730Y1019860D01*
Y1020860D01*
X1639230Y1021359D01*
X1641229Y1022359D02*
X1641729Y1022859D01*
Y1023858D01*
X1641229Y1024358D01*
X1640729D01*
X1640229Y1023858D01*
X1639730Y1024358D01*
X1639230D01*
X1638730Y1023858D01*
Y1022859D01*
X1639230Y1022359D01*
X1639730D01*
X1640229Y1022859D01*
X1640729Y1022359D01*
X1641229D01*
X1640229Y1022859D02*
Y1023858D01*
X1618869Y1077681D02*
X1619368Y1078181D01*
X1620368D01*
X1620868Y1077681D01*
Y1075682D01*
X1620368Y1075182D01*
X1619368D01*
X1618869Y1075682D01*
X1617869Y1078181D02*
X1615870D01*
Y1077681D01*
X1617869Y1075682D01*
Y1075182D01*
X1665915Y1030211D02*
X1666414Y1030711D01*
X1667414D01*
X1667914Y1030211D01*
Y1028212D01*
X1667414Y1027712D01*
X1666414D01*
X1665915Y1028212D01*
X1662916Y1030711D02*
X1664915D01*
Y1029212D01*
X1663915Y1029711D01*
X1663416D01*
X1662916Y1029212D01*
Y1028212D01*
X1663416Y1027712D01*
X1664415D01*
X1664915Y1028212D01*
X1711311Y1069911D02*
X1710811Y1070411D01*
Y1071410D01*
X1711311Y1071910D01*
X1713310D01*
X1713810Y1071410D01*
Y1070411D01*
X1713310Y1069911D01*
X1713810Y1067411D02*
X1710811D01*
X1712310Y1068911D01*
Y1066912D01*
X1698641Y938689D02*
X1699140Y939189D01*
X1700140D01*
X1700640Y938689D01*
Y936690D01*
X1700140Y936190D01*
X1699140D01*
X1698641Y936690D01*
X1697641Y938689D02*
X1697141Y939189D01*
X1696142D01*
X1695642Y938689D01*
Y938189D01*
X1696142Y937690D01*
X1696641D01*
X1696142D01*
X1695642Y937190D01*
Y936690D01*
X1696142Y936190D01*
X1697141D01*
X1697641Y936690D01*
D28*
X1543500Y1008000D02*
Y1012000D01*
X1536500Y1008000D02*
Y1012000D01*
X1632000Y1041750D02*
Y1049750D01*
X1648000Y1041750D02*
Y1049750D01*
X1602000Y1041750D02*
Y1049750D01*
X1618000Y1041750D02*
Y1049750D01*
X1641750Y1018000D02*
X1649750D01*
X1641750Y1002000D02*
X1649750D01*
X1718000Y1040250D02*
Y1048250D01*
X1702000Y1040250D02*
Y1048250D01*
X1641750Y948000D02*
X1649750D01*
X1641750Y932000D02*
X1649750D01*
M02*
