G04 Layer_Color=65535*
%FSLAX44Y44*%
%MOMM*%
G71*
G01*
G75*
%ADD25C,0.1000*%
%ADD26C,0.6000*%
%ADD27C,0.2500*%
%ADD28C,0.2000*%
%ADD29C,0.5000*%
D25*
X1696629Y1023871D02*
G03*
X1696629Y1023871I-500J0D01*
G01*
X1572000Y910000D02*
Y919500D01*
Y938500D02*
Y948000D01*
X1565000Y955000D02*
X1572000Y948000D01*
Y919500D02*
Y938500D01*
X1495000Y910000D02*
X1572000D01*
X1495000D02*
Y955000D01*
X1565000D01*
X1481999Y952999D02*
X1481000D01*
X1481499D01*
Y950500D01*
X1481000Y950000D01*
X1480500D01*
X1480000Y950500D01*
X1484998Y952999D02*
X1482999D01*
Y951499D01*
X1483999Y951999D01*
X1484498D01*
X1484998Y951499D01*
Y950500D01*
X1484498Y950000D01*
X1483499D01*
X1482999Y950500D01*
X1581999Y1012499D02*
X1581499Y1012999D01*
X1580500D01*
X1580000Y1012499D01*
Y1010500D01*
X1580500Y1010000D01*
X1581499D01*
X1581999Y1010500D01*
X1582999Y1010000D02*
X1583999D01*
X1583499D01*
Y1012999D01*
X1582999Y1012499D01*
X1471999Y1122999D02*
X1471000D01*
X1471499D01*
Y1120500D01*
X1471000Y1120000D01*
X1470500D01*
X1470000Y1120500D01*
X1474498Y1120000D02*
Y1122999D01*
X1472999Y1121499D01*
X1474998D01*
X1680000Y1022999D02*
Y1020500D01*
X1680500Y1020000D01*
X1681499D01*
X1681999Y1020500D01*
Y1022999D01*
X1682999Y1022499D02*
X1683499Y1022999D01*
X1684498D01*
X1684998Y1022499D01*
Y1021999D01*
X1684498Y1021499D01*
X1683999D01*
X1684498D01*
X1684998Y1021000D01*
Y1020500D01*
X1684498Y1020000D01*
X1683499D01*
X1682999Y1020500D01*
X1721999Y1002999D02*
X1721000D01*
X1721499D01*
Y1000500D01*
X1721000Y1000000D01*
X1720500D01*
X1720000Y1000500D01*
X1722999Y1002499D02*
X1723499Y1002999D01*
X1724498D01*
X1724998Y1002499D01*
Y1001999D01*
X1724498Y1001499D01*
X1723999D01*
X1724498D01*
X1724998Y1001000D01*
Y1000500D01*
X1724498Y1000000D01*
X1723499D01*
X1722999Y1000500D01*
X1581999Y962499D02*
X1581499Y962999D01*
X1580500D01*
X1580000Y962499D01*
Y960500D01*
X1580500Y960000D01*
X1581499D01*
X1581999Y960500D01*
X1582999D02*
X1583499Y960000D01*
X1584499D01*
X1584998Y960500D01*
Y962499D01*
X1584499Y962999D01*
X1583499D01*
X1582999Y962499D01*
Y961999D01*
X1583499Y961499D01*
X1584998D01*
X1601999Y1022499D02*
X1601499Y1022999D01*
X1600500D01*
X1600000Y1022499D01*
Y1020500D01*
X1600500Y1020000D01*
X1601499D01*
X1601999Y1020500D01*
X1604998Y1020000D02*
X1602999D01*
X1604998Y1021999D01*
Y1022499D01*
X1604498Y1022999D01*
X1603499D01*
X1602999Y1022499D01*
X1721999Y1082999D02*
X1721000D01*
X1721499D01*
Y1080500D01*
X1721000Y1080000D01*
X1720500D01*
X1720000Y1080500D01*
X1722999Y1080000D02*
X1723999D01*
X1723499D01*
Y1082999D01*
X1722999Y1082499D01*
X1531999Y1022999D02*
X1531000D01*
X1531499D01*
Y1020500D01*
X1531000Y1020000D01*
X1530500D01*
X1530000Y1020500D01*
X1534998Y1020000D02*
X1532999D01*
X1534998Y1021999D01*
Y1022499D01*
X1534498Y1022999D01*
X1533499D01*
X1532999Y1022499D01*
X1658001Y1097501D02*
X1658501Y1097001D01*
X1659500D01*
X1660000Y1097501D01*
Y1099500D01*
X1659500Y1100000D01*
X1658501D01*
X1658001Y1099500D01*
X1655002Y1097001D02*
X1656001Y1097501D01*
X1657001Y1098501D01*
Y1099500D01*
X1656501Y1100000D01*
X1655501D01*
X1655002Y1099500D01*
Y1099000D01*
X1655501Y1098501D01*
X1657001D01*
X1710000Y1062999D02*
Y1060500D01*
X1710500Y1060000D01*
X1711499D01*
X1711999Y1060500D01*
Y1062999D01*
X1714998Y1060000D02*
X1712999D01*
X1714998Y1061999D01*
Y1062499D01*
X1714499Y1062999D01*
X1713499D01*
X1712999Y1062499D01*
X1600000Y932999D02*
Y930500D01*
X1600500Y930000D01*
X1601499D01*
X1601999Y930500D01*
Y932999D01*
X1602999Y930000D02*
X1603999D01*
X1603499D01*
Y932999D01*
X1602999Y932499D01*
D26*
X1644250Y1005900D02*
G03*
X1644250Y1005900I-3000J0D01*
G01*
D27*
X1621250Y1018500D02*
G03*
X1621250Y1018500I-1250J0D01*
G01*
D28*
X1578000Y1031750D02*
Y1039750D01*
X1562000Y1031750D02*
Y1039750D01*
X1662000Y1030750D02*
X1697000D01*
Y1068250D01*
X1662000Y1030750D02*
Y1068250D01*
X1697000D01*
X1578000Y981750D02*
Y989750D01*
X1562000Y981750D02*
Y989750D01*
X1618000Y1041750D02*
Y1049750D01*
X1602000Y1041750D02*
Y1049750D01*
X1648000Y1041750D02*
Y1049750D01*
X1632000Y1041750D02*
Y1049750D01*
X1631250Y927900D02*
X1663250D01*
X1631250Y1015900D02*
X1663250D01*
D29*
X1606200Y1125400D02*
X1606600Y1125000D01*
Y1084200D02*
Y1125000D01*
X1597000Y1074600D02*
X1606600Y1084200D01*
X1580000Y1074600D02*
X1597000D01*
X1480000D02*
X1580000D01*
X1480000D02*
Y1125400D01*
X1605400D01*
X1694760Y934760D02*
Y993180D01*
X1725240D01*
Y937300D02*
Y993180D01*
X1722700Y934760D02*
X1725240Y937300D01*
X1694760Y934760D02*
X1722700D01*
X1716200Y1125400D02*
X1716600Y1125000D01*
Y1084200D02*
Y1125000D01*
X1707000Y1074600D02*
X1716600Y1084200D01*
X1690000Y1074600D02*
X1707000D01*
X1613800D02*
X1690000D01*
X1613800D02*
Y1125400D01*
X1715400D01*
X1525400Y964600D02*
Y1066200D01*
X1474600D02*
X1525400D01*
X1474600Y990000D02*
Y1066200D01*
Y973000D02*
Y990000D01*
Y973000D02*
X1484200Y963400D01*
X1525000D01*
X1525400Y963800D01*
M02*
