G04 Layer_Color=2752767*
%FSLAX44Y44*%
%MOMM*%
G71*
G01*
G75*
%ADD44C,0.1270*%
%ADD45C,0.1693*%
D44*
X1504120Y922220D02*
Y932380D01*
X1514280D01*
Y922220D01*
X1504120D01*
X1516820D02*
Y932380D01*
X1526980D01*
Y922220D01*
X1516820D01*
X1529520D02*
Y932380D01*
X1539680D01*
Y922220D01*
X1529520D01*
X1542220D02*
Y932380D01*
X1552380D01*
Y922220D01*
X1542220D01*
X1554920D02*
Y932380D01*
X1565080D01*
Y922220D01*
X1554920D01*
X1504120Y934920D02*
Y945080D01*
X1514280D01*
Y934920D01*
X1504120D01*
X1516820D02*
Y945080D01*
X1526980D01*
Y934920D01*
X1516820D01*
X1529520D02*
Y945080D01*
X1539680D01*
Y934920D01*
X1529520D01*
X1542220D02*
Y945080D01*
X1552380D01*
Y934920D01*
X1542220D01*
X1554920D02*
Y945080D01*
X1565080D01*
Y934920D01*
X1554920D01*
X1710000Y944920D02*
X1704920Y955080D01*
X1715080D01*
X1710000Y944920D01*
Y970320D02*
X1704920Y980480D01*
X1715080D01*
X1710000Y970320D01*
X1637030Y1068578D02*
X1639570Y1071118D01*
X1642110D01*
X1639570Y1073658D01*
X1642110Y1076198D01*
X1639570D01*
X1637030Y1078738D01*
X1634490Y1076198D01*
X1631950D01*
X1634490Y1073658D01*
X1631950Y1071118D01*
X1634490D01*
X1637030Y1068578D01*
X1645666Y923544D02*
X1648206Y926084D01*
X1650746D01*
X1648206Y928624D01*
X1650746Y931164D01*
X1648206D01*
X1645666Y933704D01*
X1643126Y931164D01*
X1640586D01*
X1643126Y928624D01*
X1640586Y926084D01*
X1643126D01*
X1645666Y923544D01*
X1596390Y1093470D02*
X1598930Y1096010D01*
X1601470D01*
X1598930Y1098550D01*
X1601470Y1101090D01*
X1598930D01*
X1596390Y1103630D01*
X1593850Y1101090D01*
X1591310D01*
X1593850Y1098550D01*
X1591310Y1096010D01*
X1593850D01*
X1596390Y1093470D01*
X1689862Y1018794D02*
X1692402Y1021334D01*
X1694942D01*
X1692402Y1023874D01*
X1694942Y1026414D01*
X1692402D01*
X1689862Y1028954D01*
X1687322Y1026414D01*
X1684782D01*
X1687322Y1023874D01*
X1684782Y1021334D01*
X1687322D01*
X1689862Y1018794D01*
X1698498Y957580D02*
X1701038Y960120D01*
X1703578D01*
X1701038Y962660D01*
X1703578Y965200D01*
X1701038D01*
X1698498Y967740D01*
X1695958Y965200D01*
X1693418D01*
X1695958Y962660D01*
X1693418Y960120D01*
X1695958D01*
X1698498Y957580D01*
X1605534Y1008634D02*
X1608074Y1011174D01*
X1610614D01*
X1608074Y1013714D01*
X1610614Y1016254D01*
X1608074D01*
X1605534Y1018794D01*
X1602994Y1016254D01*
X1600454D01*
X1602994Y1013714D01*
X1600454Y1011174D01*
X1602994D01*
X1605534Y1008634D01*
X1653170Y950320D02*
X1655710Y955400D01*
X1653170Y960480D01*
X1658250Y957940D01*
X1663330Y960480D01*
X1660790Y955400D01*
X1663330Y950320D01*
X1658250Y952860D01*
X1653170Y950320D01*
X1642170D02*
X1644710Y955400D01*
X1642170Y960480D01*
X1647250Y957940D01*
X1652330Y960480D01*
X1649790Y955400D01*
X1652330Y950320D01*
X1647250Y952860D01*
X1642170Y950320D01*
X1631170D02*
X1633710Y955400D01*
X1631170Y960480D01*
X1636250Y957940D01*
X1641330Y960480D01*
X1638790Y955400D01*
X1641330Y950320D01*
X1636250Y952860D01*
X1631170Y950320D01*
X1653170Y961320D02*
X1655710Y966400D01*
X1653170Y971480D01*
X1658250Y968940D01*
X1663330Y971480D01*
X1660790Y966400D01*
X1663330Y961320D01*
X1658250Y963860D01*
X1653170Y961320D01*
X1642170D02*
X1644710Y966400D01*
X1642170Y971480D01*
X1647250Y968940D01*
X1652330Y971480D01*
X1649790Y966400D01*
X1652330Y961320D01*
X1647250Y963860D01*
X1642170Y961320D01*
X1631170D02*
X1633710Y966400D01*
X1631170Y971480D01*
X1636250Y968940D01*
X1641330Y971480D01*
X1638790Y966400D01*
X1641330Y961320D01*
X1636250Y963860D01*
X1631170Y961320D01*
X1653170Y972320D02*
X1655710Y977400D01*
X1653170Y982480D01*
X1658250Y979940D01*
X1663330Y982480D01*
X1660790Y977400D01*
X1663330Y972320D01*
X1658250Y974860D01*
X1653170Y972320D01*
X1642170D02*
X1644710Y977400D01*
X1642170Y982480D01*
X1647250Y979940D01*
X1652330Y982480D01*
X1649790Y977400D01*
X1652330Y972320D01*
X1647250Y974860D01*
X1642170Y972320D01*
X1631170D02*
X1633710Y977400D01*
X1631170Y982480D01*
X1636250Y979940D01*
X1641330Y982480D01*
X1638790Y977400D01*
X1641330Y972320D01*
X1636250Y974860D01*
X1631170Y972320D01*
X1653170Y983320D02*
X1655710Y988400D01*
X1653170Y993480D01*
X1658250Y990940D01*
X1663330Y993480D01*
X1660790Y988400D01*
X1663330Y983320D01*
X1658250Y985860D01*
X1653170Y983320D01*
X1642170D02*
X1644710Y988400D01*
X1642170Y993480D01*
X1647250Y990940D01*
X1652330Y993480D01*
X1649790Y988400D01*
X1652330Y983320D01*
X1647250Y985860D01*
X1642170Y983320D01*
X1631170D02*
X1633710Y988400D01*
X1631170Y993480D01*
X1636250Y990940D01*
X1641330Y993480D01*
X1638790Y988400D01*
X1641330Y983320D01*
X1636250Y985860D01*
X1631170Y983320D01*
D45*
X1534280Y1100000D02*
G03*
X1534280Y1100000I-5080J0D01*
G01*
X1559680D02*
G03*
X1559680Y1100000I-5080J0D01*
G01*
X1585080D02*
G03*
X1585080Y1100000I-5080J0D01*
G01*
X1508880D02*
G03*
X1508880Y1100000I-5080J0D01*
G01*
X1644280D02*
G03*
X1644280Y1100000I-5080J0D01*
G01*
X1669680D02*
G03*
X1669680Y1100000I-5080J0D01*
G01*
X1695080D02*
G03*
X1695080Y1100000I-5080J0D01*
G01*
X1505080Y990000D02*
G03*
X1505080Y990000I-5080J0D01*
G01*
Y1015400D02*
G03*
X1505080Y1015400I-5080J0D01*
G01*
Y1040800D02*
G03*
X1505080Y1040800I-5080J0D01*
G01*
M02*
